<svg xmlns="http://www.w3.org/2000/svg" viewBox="0 0 980 460" width="980" height="460" font-family="Helvetica,Arial,sans-serif">
<rect width="980" height="460" fill="#ffffff"/>
<text x="490" y="26" text-anchor="middle" font-size="17" font-weight="700" fill="#0b0b0b">Asahi India Glas (ASAHIINDIA) vs Nifty 50 — yearly change in each ratio</text>
<text x="490" y="44" text-anchor="middle" font-size="12" fill="#52514e">Above 0 the company gained on the index that year; below 0 it lagged</text>
<line x1="78" y1="54.0" x2="954" y2="54.0" stroke="#e4e3df" stroke-width="1"/>
<text x="68" y="58.0" text-anchor="end" font-size="12" fill="#52514e">+115%</text>
<line x1="78" y1="131.5" x2="954" y2="131.5" stroke="#e4e3df" stroke-width="1"/>
<text x="68" y="135.5" text-anchor="end" font-size="12" fill="#52514e">+76%</text>
<line x1="78" y1="209.0" x2="954" y2="209.0" stroke="#e4e3df" stroke-width="1"/>
<text x="68" y="213.0" text-anchor="end" font-size="12" fill="#52514e">+37%</text>
<line x1="78" y1="286.5" x2="954" y2="286.5" stroke="#e4e3df" stroke-width="1"/>
<text x="68" y="290.5" text-anchor="end" font-size="12" fill="#52514e">-3%</text>
<line x1="78" y1="364.0" x2="954" y2="364.0" stroke="#e4e3df" stroke-width="1"/>
<text x="68" y="368.0" text-anchor="end" font-size="12" fill="#52514e">-42%</text>
<line x1="78" y1="281.5" x2="954" y2="281.5" stroke="#9b9a94" stroke-width="1.5" stroke-dasharray="6 4"/>
<line x1="78" y1="364.0" x2="954" y2="364.0" stroke="#52514e" stroke-width="1"/>
<line x1="78.0" y1="364.0" x2="78.0" y2="369.0" stroke="#52514e" stroke-width="1"/>
<text x="78.0" y="384" text-anchor="middle" font-size="12" fill="#52514e">FY2016</text>
<line x1="165.6" y1="364.0" x2="165.6" y2="369.0" stroke="#52514e" stroke-width="1"/>
<text x="165.6" y="384" text-anchor="middle" font-size="12" fill="#52514e">FY2017</text>
<line x1="253.2" y1="364.0" x2="253.2" y2="369.0" stroke="#52514e" stroke-width="1"/>
<text x="253.2" y="384" text-anchor="middle" font-size="12" fill="#52514e">FY2018</text>
<line x1="340.8" y1="364.0" x2="340.8" y2="369.0" stroke="#52514e" stroke-width="1"/>
<text x="340.8" y="384" text-anchor="middle" font-size="12" fill="#52514e">FY2019</text>
<line x1="428.4" y1="364.0" x2="428.4" y2="369.0" stroke="#52514e" stroke-width="1"/>
<text x="428.4" y="384" text-anchor="middle" font-size="12" fill="#52514e">FY2020</text>
<line x1="516.0" y1="364.0" x2="516.0" y2="369.0" stroke="#52514e" stroke-width="1"/>
<text x="516.0" y="384" text-anchor="middle" font-size="12" fill="#52514e">FY2021</text>
<line x1="603.6" y1="364.0" x2="603.6" y2="369.0" stroke="#52514e" stroke-width="1"/>
<text x="603.6" y="384" text-anchor="middle" font-size="12" fill="#52514e">FY2022</text>
<line x1="691.2" y1="364.0" x2="691.2" y2="369.0" stroke="#52514e" stroke-width="1"/>
<text x="691.2" y="384" text-anchor="middle" font-size="12" fill="#52514e">FY2023</text>
<line x1="778.8" y1="364.0" x2="778.8" y2="369.0" stroke="#52514e" stroke-width="1"/>
<text x="778.8" y="384" text-anchor="middle" font-size="12" fill="#52514e">FY2024</text>
<line x1="866.4" y1="364.0" x2="866.4" y2="369.0" stroke="#52514e" stroke-width="1"/>
<text x="866.4" y="384" text-anchor="middle" font-size="12" fill="#52514e">FY2025</text>
<line x1="954.0" y1="364.0" x2="954.0" y2="369.0" stroke="#52514e" stroke-width="1"/>
<text x="954.0" y="384" text-anchor="middle" font-size="12" fill="#52514e">FY2026</text>
<polyline points="78.0,264.1 165.6,239.3 253.2,217.5 340.8,337.7 428.4,338.2 516.0,214.7 603.6,243.7 691.2,282.9 778.8,291.9 866.4,273.1 954.0,217.8" fill="none" stroke="#2a78d6" stroke-width="2.6" stroke-linejoin="round" stroke-linecap="round"/>
<circle cx="78.0" cy="264.1" r="4" fill="#ffffff" stroke="#2a78d6" stroke-width="2.4"/>
<text x="78.0" y="253.1" text-anchor="middle" font-size="10.5" fill="#2a78d6">+8.8</text>
<circle cx="165.6" cy="239.3" r="4" fill="#ffffff" stroke="#2a78d6" stroke-width="2.4"/>
<text x="165.6" y="228.3" text-anchor="middle" font-size="10.5" fill="#2a78d6">+21.3</text>
<circle cx="253.2" cy="217.5" r="4" fill="#ffffff" stroke="#2a78d6" stroke-width="2.4"/>
<text x="253.2" y="206.5" text-anchor="middle" font-size="10.5" fill="#2a78d6">+32.2</text>
<circle cx="340.8" cy="337.7" r="4" fill="#ffffff" stroke="#2a78d6" stroke-width="2.4"/>
<text x="340.8" y="326.7" text-anchor="middle" font-size="10.5" fill="#2a78d6">-28.3</text>
<circle cx="428.4" cy="338.2" r="4" fill="#ffffff" stroke="#2a78d6" stroke-width="2.4"/>
<text x="428.4" y="327.2" text-anchor="middle" font-size="10.5" fill="#2a78d6">-28.5</text>
<circle cx="516.0" cy="214.7" r="4" fill="#ffffff" stroke="#2a78d6" stroke-width="2.4"/>
<text x="516.0" y="203.7" text-anchor="middle" font-size="10.5" fill="#2a78d6">+33.7</text>
<circle cx="603.6" cy="243.7" r="4" fill="#ffffff" stroke="#2a78d6" stroke-width="2.4"/>
<text x="603.6" y="232.7" text-anchor="middle" font-size="10.5" fill="#2a78d6">+19.0</text>
<circle cx="691.2" cy="282.9" r="4" fill="#ffffff" stroke="#2a78d6" stroke-width="2.4"/>
<text x="691.2" y="271.9" text-anchor="middle" font-size="10.5" fill="#2a78d6">-0.7</text>
<circle cx="778.8" cy="291.9" r="4" fill="#ffffff" stroke="#2a78d6" stroke-width="2.4"/>
<text x="778.8" y="280.9" text-anchor="middle" font-size="10.5" fill="#2a78d6">-5.2</text>
<circle cx="866.4" cy="273.1" r="4" fill="#ffffff" stroke="#2a78d6" stroke-width="2.4"/>
<text x="866.4" y="262.1" text-anchor="middle" font-size="10.5" fill="#2a78d6">+4.3</text>
<circle cx="954.0" cy="217.8" r="4" fill="#ffffff" stroke="#2a78d6" stroke-width="2.4"/>
<text x="954.0" y="206.8" text-anchor="middle" font-size="10.5" fill="#2a78d6">+32.1</text>
<polyline points="78.0,79.8 165.6,149.8 253.2,240.6 340.8,283.7 428.4,317.2 516.0,336.8 603.6,131.8 691.2,299.4 778.8,338.1 866.4,276.9 954.0,316.0" fill="none" stroke="#1a9e5c" stroke-width="2.6" stroke-linejoin="round" stroke-linecap="round"/>
<circle cx="78.0" cy="79.8" r="4" fill="#ffffff" stroke="#1a9e5c" stroke-width="2.4"/>
<text x="78.0" y="96.8" text-anchor="middle" font-size="10.5" fill="#1a9e5c">+101.6</text>
<circle cx="165.6" cy="149.8" r="4" fill="#ffffff" stroke="#1a9e5c" stroke-width="2.4"/>
<text x="165.6" y="166.8" text-anchor="middle" font-size="10.5" fill="#1a9e5c">+66.4</text>
<circle cx="253.2" cy="240.6" r="4" fill="#ffffff" stroke="#1a9e5c" stroke-width="2.4"/>
<text x="253.2" y="257.6" text-anchor="middle" font-size="10.5" fill="#1a9e5c">+20.6</text>
<circle cx="340.8" cy="283.7" r="4" fill="#ffffff" stroke="#1a9e5c" stroke-width="2.4"/>
<text x="340.8" y="300.7" text-anchor="middle" font-size="10.5" fill="#1a9e5c">-1.1</text>
<circle cx="428.4" cy="317.2" r="4" fill="#ffffff" stroke="#1a9e5c" stroke-width="2.4"/>
<text x="428.4" y="334.2" text-anchor="middle" font-size="10.5" fill="#1a9e5c">-18.0</text>
<circle cx="516.0" cy="336.8" r="4" fill="#ffffff" stroke="#1a9e5c" stroke-width="2.4"/>
<text x="516.0" y="353.8" text-anchor="middle" font-size="10.5" fill="#1a9e5c">-27.8</text>
<circle cx="603.6" cy="131.8" r="4" fill="#ffffff" stroke="#1a9e5c" stroke-width="2.4"/>
<text x="603.6" y="148.8" text-anchor="middle" font-size="10.5" fill="#1a9e5c">+75.5</text>
<circle cx="691.2" cy="299.4" r="4" fill="#ffffff" stroke="#1a9e5c" stroke-width="2.4"/>
<text x="691.2" y="316.4" text-anchor="middle" font-size="10.5" fill="#1a9e5c">-9.0</text>
<circle cx="778.8" cy="338.1" r="4" fill="#ffffff" stroke="#1a9e5c" stroke-width="2.4"/>
<text x="778.8" y="355.1" text-anchor="middle" font-size="10.5" fill="#1a9e5c">-28.5</text>
<circle cx="866.4" cy="276.9" r="4" fill="#ffffff" stroke="#1a9e5c" stroke-width="2.4"/>
<text x="866.4" y="293.9" text-anchor="middle" font-size="10.5" fill="#1a9e5c">+2.3</text>
<circle cx="954.0" cy="316.0" r="4" fill="#ffffff" stroke="#1a9e5c" stroke-width="2.4"/>
<text x="954.0" y="333.0" text-anchor="middle" font-size="10.5" fill="#1a9e5c">-17.4</text>
<polyline points="78.0,240.0 165.6,272.1 253.2,256.4 340.8,305.4 428.4,315.8 516.0,300.2 603.6,222.2 691.2,309.8 778.8,320.5 866.4,281.8 954.0,245.7" fill="none" stroke="#e07b00" stroke-width="2.6" stroke-linejoin="round" stroke-linecap="round"/>
<circle cx="78.0" cy="240.0" r="4" fill="#ffffff" stroke="#e07b00" stroke-width="2.4"/>
<text x="78.0" y="229.0" text-anchor="middle" font-size="10.5" fill="#e07b00">+20.9</text>
<circle cx="165.6" cy="272.1" r="4" fill="#ffffff" stroke="#e07b00" stroke-width="2.4"/>
<text x="165.6" y="261.1" text-anchor="middle" font-size="10.5" fill="#e07b00">+4.8</text>
<circle cx="253.2" cy="256.4" r="4" fill="#ffffff" stroke="#e07b00" stroke-width="2.4"/>
<text x="253.2" y="245.4" text-anchor="middle" font-size="10.5" fill="#e07b00">+12.7</text>
<circle cx="340.8" cy="305.4" r="4" fill="#ffffff" stroke="#e07b00" stroke-width="2.4"/>
<text x="340.8" y="294.4" text-anchor="middle" font-size="10.5" fill="#e07b00">-12.0</text>
<circle cx="428.4" cy="315.8" r="4" fill="#ffffff" stroke="#e07b00" stroke-width="2.4"/>
<text x="428.4" y="304.8" text-anchor="middle" font-size="10.5" fill="#e07b00">-17.3</text>
<circle cx="516.0" cy="300.2" r="4" fill="#ffffff" stroke="#e07b00" stroke-width="2.4"/>
<text x="516.0" y="289.2" text-anchor="middle" font-size="10.5" fill="#e07b00">-9.4</text>
<circle cx="603.6" cy="222.2" r="4" fill="#ffffff" stroke="#e07b00" stroke-width="2.4"/>
<text x="603.6" y="211.2" text-anchor="middle" font-size="10.5" fill="#e07b00">+29.9</text>
<circle cx="691.2" cy="309.8" r="4" fill="#ffffff" stroke="#e07b00" stroke-width="2.4"/>
<text x="691.2" y="298.8" text-anchor="middle" font-size="10.5" fill="#e07b00">-14.3</text>
<circle cx="778.8" cy="320.5" r="4" fill="#ffffff" stroke="#e07b00" stroke-width="2.4"/>
<text x="778.8" y="309.5" text-anchor="middle" font-size="10.5" fill="#e07b00">-19.6</text>
<circle cx="866.4" cy="281.8" r="4" fill="#ffffff" stroke="#e07b00" stroke-width="2.4"/>
<text x="866.4" y="270.8" text-anchor="middle" font-size="10.5" fill="#e07b00">-0.1</text>
<circle cx="954.0" cy="245.7" r="4" fill="#ffffff" stroke="#e07b00" stroke-width="2.4"/>
<text x="954.0" y="234.7" text-anchor="middle" font-size="10.5" fill="#e07b00">+18.0</text>
<rect x="78" y="426" width="13" height="13" rx="3" fill="#2a78d6"/>
<text x="97" y="437" font-size="12.5" fill="#0b0b0b">Price ratio</text>
<rect x="186" y="426" width="13" height="13" rx="3" fill="#1a9e5c"/>
<text x="205" y="437" font-size="12.5" fill="#0b0b0b">PAT ratio</text>
<rect x="279" y="426" width="13" height="13" rx="3" fill="#e07b00"/>
<text x="298" y="437" font-size="12.5" fill="#0b0b0b">Operating-profit ratio</text>
</svg>
