<svg xmlns="http://www.w3.org/2000/svg" viewBox="0 0 980 460" width="980" height="460" font-family="Helvetica,Arial,sans-serif">
<rect width="980" height="460" fill="#ffffff"/>
<text x="490" y="26" text-anchor="middle" font-size="17" font-weight="700" fill="#0b0b0b">Cemindia Project (CEMPRO) vs Nifty 50 — yearly change in each ratio</text>
<text x="490" y="44" text-anchor="middle" font-size="12" fill="#52514e">Above 0 the company gained on the index that year; below 0 it lagged</text>
<line x1="78" y1="54.0" x2="954" y2="54.0" stroke="#e4e3df" stroke-width="1"/>
<text x="68" y="58.0" text-anchor="end" font-size="12" fill="#52514e">+339%</text>
<line x1="78" y1="131.5" x2="954" y2="131.5" stroke="#e4e3df" stroke-width="1"/>
<text x="68" y="135.5" text-anchor="end" font-size="12" fill="#52514e">+139%</text>
<line x1="78" y1="209.0" x2="954" y2="209.0" stroke="#e4e3df" stroke-width="1"/>
<text x="68" y="213.0" text-anchor="end" font-size="12" fill="#52514e">-61%</text>
<line x1="78" y1="286.5" x2="954" y2="286.5" stroke="#e4e3df" stroke-width="1"/>
<text x="68" y="290.5" text-anchor="end" font-size="12" fill="#52514e">-261%</text>
<line x1="78" y1="364.0" x2="954" y2="364.0" stroke="#e4e3df" stroke-width="1"/>
<text x="68" y="368.0" text-anchor="end" font-size="12" fill="#52514e">-461%</text>
<line x1="78" y1="185.2" x2="954" y2="185.2" stroke="#9b9a94" stroke-width="1.5" stroke-dasharray="6 4"/>
<line x1="78" y1="364.0" x2="954" y2="364.0" stroke="#52514e" stroke-width="1"/>
<line x1="78.0" y1="364.0" x2="78.0" y2="369.0" stroke="#52514e" stroke-width="1"/>
<text x="78.0" y="384" text-anchor="middle" font-size="12" fill="#52514e">FY2016</text>
<line x1="165.6" y1="364.0" x2="165.6" y2="369.0" stroke="#52514e" stroke-width="1"/>
<text x="165.6" y="384" text-anchor="middle" font-size="12" fill="#52514e">FY2017</text>
<line x1="253.2" y1="364.0" x2="253.2" y2="369.0" stroke="#52514e" stroke-width="1"/>
<text x="253.2" y="384" text-anchor="middle" font-size="12" fill="#52514e">FY2018</text>
<line x1="340.8" y1="364.0" x2="340.8" y2="369.0" stroke="#52514e" stroke-width="1"/>
<text x="340.8" y="384" text-anchor="middle" font-size="12" fill="#52514e">FY2019</text>
<line x1="428.4" y1="364.0" x2="428.4" y2="369.0" stroke="#52514e" stroke-width="1"/>
<text x="428.4" y="384" text-anchor="middle" font-size="12" fill="#52514e">FY2020</text>
<line x1="516.0" y1="364.0" x2="516.0" y2="369.0" stroke="#52514e" stroke-width="1"/>
<text x="516.0" y="384" text-anchor="middle" font-size="12" fill="#52514e">FY2021</text>
<line x1="603.6" y1="364.0" x2="603.6" y2="369.0" stroke="#52514e" stroke-width="1"/>
<text x="603.6" y="384" text-anchor="middle" font-size="12" fill="#52514e">FY2022</text>
<line x1="691.2" y1="364.0" x2="691.2" y2="369.0" stroke="#52514e" stroke-width="1"/>
<text x="691.2" y="384" text-anchor="middle" font-size="12" fill="#52514e">FY2023</text>
<line x1="778.8" y1="364.0" x2="778.8" y2="369.0" stroke="#52514e" stroke-width="1"/>
<text x="778.8" y="384" text-anchor="middle" font-size="12" fill="#52514e">FY2024</text>
<line x1="866.4" y1="364.0" x2="866.4" y2="369.0" stroke="#52514e" stroke-width="1"/>
<text x="866.4" y="384" text-anchor="middle" font-size="12" fill="#52514e">FY2025</text>
<line x1="954.0" y1="364.0" x2="954.0" y2="369.0" stroke="#52514e" stroke-width="1"/>
<text x="954.0" y="384" text-anchor="middle" font-size="12" fill="#52514e">FY2026</text>
<polyline points="78.0,164.9 165.6,172.7 253.2,193.1 340.8,194.8 428.4,213.3 516.0,155.6 603.6,197.1 691.2,163.3 778.8,124.8 866.4,163.9 954.0,187.9" fill="none" stroke="#2a78d6" stroke-width="2.6" stroke-linejoin="round" stroke-linecap="round"/>
<circle cx="78.0" cy="164.9" r="4" fill="#ffffff" stroke="#2a78d6" stroke-width="2.4"/>
<text x="78.0" y="153.9" text-anchor="middle" font-size="10.5" fill="#2a78d6">+52.5</text>
<circle cx="165.6" cy="172.7" r="4" fill="#ffffff" stroke="#2a78d6" stroke-width="2.4"/>
<text x="165.6" y="161.7" text-anchor="middle" font-size="10.5" fill="#2a78d6">+32.3</text>
<circle cx="253.2" cy="193.1" r="4" fill="#ffffff" stroke="#2a78d6" stroke-width="2.4"/>
<text x="253.2" y="182.1" text-anchor="middle" font-size="10.5" fill="#2a78d6">-20.5</text>
<circle cx="340.8" cy="194.8" r="4" fill="#ffffff" stroke="#2a78d6" stroke-width="2.4"/>
<text x="340.8" y="183.8" text-anchor="middle" font-size="10.5" fill="#2a78d6">-24.8</text>
<circle cx="428.4" cy="213.3" r="4" fill="#ffffff" stroke="#2a78d6" stroke-width="2.4"/>
<text x="428.4" y="202.3" text-anchor="middle" font-size="10.5" fill="#2a78d6">-72.6</text>
<circle cx="516.0" cy="155.6" r="4" fill="#ffffff" stroke="#2a78d6" stroke-width="2.4"/>
<text x="516.0" y="144.6" text-anchor="middle" font-size="10.5" fill="#2a78d6">+76.3</text>
<circle cx="603.6" cy="197.1" r="4" fill="#ffffff" stroke="#2a78d6" stroke-width="2.4"/>
<text x="603.6" y="186.1" text-anchor="middle" font-size="10.5" fill="#2a78d6">-30.7</text>
<circle cx="691.2" cy="163.3" r="4" fill="#ffffff" stroke="#2a78d6" stroke-width="2.4"/>
<text x="691.2" y="152.3" text-anchor="middle" font-size="10.5" fill="#2a78d6">+56.6</text>
<circle cx="778.8" cy="124.8" r="4" fill="#ffffff" stroke="#2a78d6" stroke-width="2.4"/>
<text x="778.8" y="113.8" text-anchor="middle" font-size="10.5" fill="#2a78d6">+155.8</text>
<circle cx="866.4" cy="163.9" r="4" fill="#ffffff" stroke="#2a78d6" stroke-width="2.4"/>
<text x="866.4" y="152.9" text-anchor="middle" font-size="10.5" fill="#2a78d6">+55.0</text>
<circle cx="954.0" cy="187.9" r="4" fill="#ffffff" stroke="#2a78d6" stroke-width="2.4"/>
<text x="954.0" y="176.9" text-anchor="middle" font-size="10.5" fill="#2a78d6">-7.0</text>
<polyline points="78.0,338.2 165.6,114.9 253.2,166.9 516.0,206.9 603.6,214.5 691.2,79.8 778.8,168.1 866.4,147.0 954.0,177.6" fill="none" stroke="#1a9e5c" stroke-width="2.6" stroke-linejoin="round" stroke-linecap="round"/>
<circle cx="78.0" cy="338.2" r="4" fill="#ffffff" stroke="#1a9e5c" stroke-width="2.4"/>
<text x="78.0" y="355.2" text-anchor="middle" font-size="10.5" fill="#1a9e5c">-394.6</text>
<circle cx="165.6" cy="114.9" r="4" fill="#ffffff" stroke="#1a9e5c" stroke-width="2.4"/>
<text x="165.6" y="131.9" text-anchor="middle" font-size="10.5" fill="#1a9e5c">+181.5</text>
<circle cx="253.2" cy="166.9" r="4" fill="#ffffff" stroke="#1a9e5c" stroke-width="2.4"/>
<text x="253.2" y="183.9" text-anchor="middle" font-size="10.5" fill="#1a9e5c">+47.1</text>
<circle cx="516.0" cy="206.9" r="4" fill="#ffffff" stroke="#1a9e5c" stroke-width="2.4"/>
<text x="516.0" y="223.9" text-anchor="middle" font-size="10.5" fill="#1a9e5c">-55.9</text>
<circle cx="603.6" cy="214.5" r="4" fill="#ffffff" stroke="#1a9e5c" stroke-width="2.4"/>
<text x="603.6" y="231.5" text-anchor="middle" font-size="10.5" fill="#1a9e5c">-75.6</text>
<circle cx="691.2" cy="79.8" r="4" fill="#ffffff" stroke="#1a9e5c" stroke-width="2.4"/>
<text x="691.2" y="96.8" text-anchor="middle" font-size="10.5" fill="#1a9e5c">+271.9</text>
<circle cx="778.8" cy="168.1" r="4" fill="#ffffff" stroke="#1a9e5c" stroke-width="2.4"/>
<text x="778.8" y="185.1" text-anchor="middle" font-size="10.5" fill="#1a9e5c">+44.2</text>
<circle cx="866.4" cy="147.0" r="4" fill="#ffffff" stroke="#1a9e5c" stroke-width="2.4"/>
<text x="866.4" y="164.0" text-anchor="middle" font-size="10.5" fill="#1a9e5c">+98.6</text>
<circle cx="954.0" cy="177.6" r="4" fill="#ffffff" stroke="#1a9e5c" stroke-width="2.4"/>
<text x="954.0" y="194.6" text-anchor="middle" font-size="10.5" fill="#1a9e5c">+19.6</text>
<polyline points="78.0,146.2 165.6,181.5 253.2,175.3 516.0,187.7 603.6,205.8 691.2,180.2 778.8,177.3 866.4,155.8 954.0,179.9" fill="none" stroke="#e07b00" stroke-width="2.6" stroke-linejoin="round" stroke-linecap="round"/>
<circle cx="78.0" cy="146.2" r="4" fill="#ffffff" stroke="#e07b00" stroke-width="2.4"/>
<text x="78.0" y="135.2" text-anchor="middle" font-size="10.5" fill="#e07b00">+100.6</text>
<circle cx="165.6" cy="181.5" r="4" fill="#ffffff" stroke="#e07b00" stroke-width="2.4"/>
<text x="165.6" y="170.5" text-anchor="middle" font-size="10.5" fill="#e07b00">+9.5</text>
<circle cx="253.2" cy="175.3" r="4" fill="#ffffff" stroke="#e07b00" stroke-width="2.4"/>
<text x="253.2" y="164.3" text-anchor="middle" font-size="10.5" fill="#e07b00">+25.5</text>
<circle cx="516.0" cy="187.7" r="4" fill="#ffffff" stroke="#e07b00" stroke-width="2.4"/>
<text x="516.0" y="176.7" text-anchor="middle" font-size="10.5" fill="#e07b00">-6.4</text>
<circle cx="603.6" cy="205.8" r="4" fill="#ffffff" stroke="#e07b00" stroke-width="2.4"/>
<text x="603.6" y="194.8" text-anchor="middle" font-size="10.5" fill="#e07b00">-53.2</text>
<circle cx="691.2" cy="180.2" r="4" fill="#ffffff" stroke="#e07b00" stroke-width="2.4"/>
<text x="691.2" y="169.2" text-anchor="middle" font-size="10.5" fill="#e07b00">+12.9</text>
<circle cx="778.8" cy="177.3" r="4" fill="#ffffff" stroke="#e07b00" stroke-width="2.4"/>
<text x="778.8" y="166.3" text-anchor="middle" font-size="10.5" fill="#e07b00">+20.5</text>
<circle cx="866.4" cy="155.8" r="4" fill="#ffffff" stroke="#e07b00" stroke-width="2.4"/>
<text x="866.4" y="144.8" text-anchor="middle" font-size="10.5" fill="#e07b00">+75.8</text>
<circle cx="954.0" cy="179.9" r="4" fill="#ffffff" stroke="#e07b00" stroke-width="2.4"/>
<text x="954.0" y="168.9" text-anchor="middle" font-size="10.5" fill="#e07b00">+13.7</text>
<rect x="78" y="426" width="13" height="13" rx="3" fill="#2a78d6"/>
<text x="97" y="437" font-size="12.5" fill="#0b0b0b">Price ratio</text>
<rect x="186" y="426" width="13" height="13" rx="3" fill="#1a9e5c"/>
<text x="205" y="437" font-size="12.5" fill="#0b0b0b">PAT ratio</text>
<rect x="279" y="426" width="13" height="13" rx="3" fill="#e07b00"/>
<text x="298" y="437" font-size="12.5" fill="#0b0b0b">Operating-profit ratio</text>
</svg>
