<svg xmlns="http://www.w3.org/2000/svg" viewBox="0 0 980 460" width="980" height="460" font-family="Helvetica,Arial,sans-serif">
<rect width="980" height="460" fill="#ffffff"/>
<text x="490" y="26" text-anchor="middle" font-size="17" font-weight="700" fill="#0b0b0b">Dabur India Ltd. (DABUR) vs Nifty 50 — yearly change in each ratio</text>
<text x="490" y="44" text-anchor="middle" font-size="12" fill="#52514e">Above 0 the company gained on the index that year; below 0 it lagged</text>
<line x1="78" y1="54.0" x2="954" y2="54.0" stroke="#e4e3df" stroke-width="1"/>
<text x="68" y="58.0" text-anchor="end" font-size="12" fill="#52514e">+37%</text>
<line x1="78" y1="131.5" x2="954" y2="131.5" stroke="#e4e3df" stroke-width="1"/>
<text x="68" y="135.5" text-anchor="end" font-size="12" fill="#52514e">+18%</text>
<line x1="78" y1="209.0" x2="954" y2="209.0" stroke="#e4e3df" stroke-width="1"/>
<text x="68" y="213.0" text-anchor="end" font-size="12" fill="#52514e">-0%</text>
<line x1="78" y1="286.5" x2="954" y2="286.5" stroke="#e4e3df" stroke-width="1"/>
<text x="68" y="290.5" text-anchor="end" font-size="12" fill="#52514e">-19%</text>
<line x1="78" y1="364.0" x2="954" y2="364.0" stroke="#e4e3df" stroke-width="1"/>
<text x="68" y="368.0" text-anchor="end" font-size="12" fill="#52514e">-37%</text>
<line x1="78" y1="207.6" x2="954" y2="207.6" stroke="#9b9a94" stroke-width="1.5" stroke-dasharray="6 4"/>
<line x1="78" y1="364.0" x2="954" y2="364.0" stroke="#52514e" stroke-width="1"/>
<line x1="78.0" y1="364.0" x2="78.0" y2="369.0" stroke="#52514e" stroke-width="1"/>
<text x="78.0" y="384" text-anchor="middle" font-size="12" fill="#52514e">FY2016</text>
<line x1="165.6" y1="364.0" x2="165.6" y2="369.0" stroke="#52514e" stroke-width="1"/>
<text x="165.6" y="384" text-anchor="middle" font-size="12" fill="#52514e">FY2017</text>
<line x1="253.2" y1="364.0" x2="253.2" y2="369.0" stroke="#52514e" stroke-width="1"/>
<text x="253.2" y="384" text-anchor="middle" font-size="12" fill="#52514e">FY2018</text>
<line x1="340.8" y1="364.0" x2="340.8" y2="369.0" stroke="#52514e" stroke-width="1"/>
<text x="340.8" y="384" text-anchor="middle" font-size="12" fill="#52514e">FY2019</text>
<line x1="428.4" y1="364.0" x2="428.4" y2="369.0" stroke="#52514e" stroke-width="1"/>
<text x="428.4" y="384" text-anchor="middle" font-size="12" fill="#52514e">FY2020</text>
<line x1="516.0" y1="364.0" x2="516.0" y2="369.0" stroke="#52514e" stroke-width="1"/>
<text x="516.0" y="384" text-anchor="middle" font-size="12" fill="#52514e">FY2021</text>
<line x1="603.6" y1="364.0" x2="603.6" y2="369.0" stroke="#52514e" stroke-width="1"/>
<text x="603.6" y="384" text-anchor="middle" font-size="12" fill="#52514e">FY2022</text>
<line x1="691.2" y1="364.0" x2="691.2" y2="369.0" stroke="#52514e" stroke-width="1"/>
<text x="691.2" y="384" text-anchor="middle" font-size="12" fill="#52514e">FY2023</text>
<line x1="778.8" y1="364.0" x2="778.8" y2="369.0" stroke="#52514e" stroke-width="1"/>
<text x="778.8" y="384" text-anchor="middle" font-size="12" fill="#52514e">FY2024</text>
<line x1="866.4" y1="364.0" x2="866.4" y2="369.0" stroke="#52514e" stroke-width="1"/>
<text x="866.4" y="384" text-anchor="middle" font-size="12" fill="#52514e">FY2025</text>
<line x1="954.0" y1="364.0" x2="954.0" y2="369.0" stroke="#52514e" stroke-width="1"/>
<text x="954.0" y="384" text-anchor="middle" font-size="12" fill="#52514e">FY2026</text>
<polyline points="78.0,215.7 165.6,234.3 253.2,196.8 340.8,147.3 428.4,79.8 516.0,287.6 603.6,271.1 691.2,223.5 778.8,305.2 866.4,249.8 954.0,282.4" fill="none" stroke="#2a78d6" stroke-width="2.6" stroke-linejoin="round" stroke-linecap="round"/>
<circle cx="78.0" cy="215.7" r="4" fill="#ffffff" stroke="#2a78d6" stroke-width="2.4"/>
<text x="78.0" y="204.7" text-anchor="middle" font-size="10.5" fill="#2a78d6">-1.9</text>
<circle cx="165.6" cy="234.3" r="4" fill="#ffffff" stroke="#2a78d6" stroke-width="2.4"/>
<text x="165.6" y="223.3" text-anchor="middle" font-size="10.5" fill="#2a78d6">-6.4</text>
<circle cx="253.2" cy="196.8" r="4" fill="#ffffff" stroke="#2a78d6" stroke-width="2.4"/>
<text x="253.2" y="185.8" text-anchor="middle" font-size="10.5" fill="#2a78d6">+2.6</text>
<circle cx="340.8" cy="147.3" r="4" fill="#ffffff" stroke="#2a78d6" stroke-width="2.4"/>
<text x="340.8" y="136.3" text-anchor="middle" font-size="10.5" fill="#2a78d6">+14.4</text>
<circle cx="428.4" cy="79.8" r="4" fill="#ffffff" stroke="#2a78d6" stroke-width="2.4"/>
<text x="428.4" y="68.8" text-anchor="middle" font-size="10.5" fill="#2a78d6">+30.5</text>
<circle cx="516.0" cy="287.6" r="4" fill="#ffffff" stroke="#2a78d6" stroke-width="2.4"/>
<text x="516.0" y="276.6" text-anchor="middle" font-size="10.5" fill="#2a78d6">-19.1</text>
<circle cx="603.6" cy="271.1" r="4" fill="#ffffff" stroke="#2a78d6" stroke-width="2.4"/>
<text x="603.6" y="260.1" text-anchor="middle" font-size="10.5" fill="#2a78d6">-15.1</text>
<circle cx="691.2" cy="223.5" r="4" fill="#ffffff" stroke="#2a78d6" stroke-width="2.4"/>
<text x="691.2" y="212.5" text-anchor="middle" font-size="10.5" fill="#2a78d6">-3.8</text>
<circle cx="778.8" cy="305.2" r="4" fill="#ffffff" stroke="#2a78d6" stroke-width="2.4"/>
<text x="778.8" y="294.2" text-anchor="middle" font-size="10.5" fill="#2a78d6">-23.3</text>
<circle cx="866.4" cy="249.8" r="4" fill="#ffffff" stroke="#2a78d6" stroke-width="2.4"/>
<text x="866.4" y="238.8" text-anchor="middle" font-size="10.5" fill="#2a78d6">-10.1</text>
<circle cx="954.0" cy="282.4" r="4" fill="#ffffff" stroke="#2a78d6" stroke-width="2.4"/>
<text x="954.0" y="271.4" text-anchor="middle" font-size="10.5" fill="#2a78d6">-17.8</text>
<polyline points="78.0,159.8 165.6,223.5 253.2,169.7 340.8,213.5 428.4,198.2 516.0,218.7 603.6,338.2 691.2,273.9 778.8,271.5 866.4,261.9 954.0,231.1" fill="none" stroke="#1a9e5c" stroke-width="2.6" stroke-linejoin="round" stroke-linecap="round"/>
<circle cx="78.0" cy="159.8" r="4" fill="#ffffff" stroke="#1a9e5c" stroke-width="2.4"/>
<text x="78.0" y="176.8" text-anchor="middle" font-size="10.5" fill="#1a9e5c">+11.4</text>
<circle cx="165.6" cy="223.5" r="4" fill="#ffffff" stroke="#1a9e5c" stroke-width="2.4"/>
<text x="165.6" y="240.5" text-anchor="middle" font-size="10.5" fill="#1a9e5c">-3.8</text>
<circle cx="253.2" cy="169.7" r="4" fill="#ffffff" stroke="#1a9e5c" stroke-width="2.4"/>
<text x="253.2" y="186.7" text-anchor="middle" font-size="10.5" fill="#1a9e5c">+9.1</text>
<circle cx="340.8" cy="213.5" r="4" fill="#ffffff" stroke="#1a9e5c" stroke-width="2.4"/>
<text x="340.8" y="230.5" text-anchor="middle" font-size="10.5" fill="#1a9e5c">-1.4</text>
<circle cx="428.4" cy="198.2" r="4" fill="#ffffff" stroke="#1a9e5c" stroke-width="2.4"/>
<text x="428.4" y="215.2" text-anchor="middle" font-size="10.5" fill="#1a9e5c">+2.3</text>
<circle cx="516.0" cy="218.7" r="4" fill="#ffffff" stroke="#1a9e5c" stroke-width="2.4"/>
<text x="516.0" y="235.7" text-anchor="middle" font-size="10.5" fill="#1a9e5c">-2.6</text>
<circle cx="603.6" cy="338.2" r="4" fill="#ffffff" stroke="#1a9e5c" stroke-width="2.4"/>
<text x="603.6" y="355.2" text-anchor="middle" font-size="10.5" fill="#1a9e5c">-31.1</text>
<circle cx="691.2" cy="273.9" r="4" fill="#ffffff" stroke="#1a9e5c" stroke-width="2.4"/>
<text x="691.2" y="290.9" text-anchor="middle" font-size="10.5" fill="#1a9e5c">-15.8</text>
<circle cx="778.8" cy="271.5" r="4" fill="#ffffff" stroke="#1a9e5c" stroke-width="2.4"/>
<text x="778.8" y="288.5" text-anchor="middle" font-size="10.5" fill="#1a9e5c">-15.2</text>
<circle cx="866.4" cy="261.9" r="4" fill="#ffffff" stroke="#1a9e5c" stroke-width="2.4"/>
<text x="866.4" y="278.9" text-anchor="middle" font-size="10.5" fill="#1a9e5c">-12.9</text>
<circle cx="954.0" cy="231.1" r="4" fill="#ffffff" stroke="#1a9e5c" stroke-width="2.4"/>
<text x="954.0" y="248.1" text-anchor="middle" font-size="10.5" fill="#1a9e5c">-5.6</text>
<polyline points="78.0,168.5 165.6,212.6 253.2,175.1 340.8,265.8 428.4,208.2 516.0,202.7 603.6,276.7 691.2,296.6 778.8,216.2 866.4,245.0 954.0,190.1" fill="none" stroke="#e07b00" stroke-width="2.6" stroke-linejoin="round" stroke-linecap="round"/>
<circle cx="78.0" cy="168.5" r="4" fill="#ffffff" stroke="#e07b00" stroke-width="2.4"/>
<text x="78.0" y="157.5" text-anchor="middle" font-size="10.5" fill="#e07b00">+9.3</text>
<circle cx="165.6" cy="212.6" r="4" fill="#ffffff" stroke="#e07b00" stroke-width="2.4"/>
<text x="165.6" y="201.6" text-anchor="middle" font-size="10.5" fill="#e07b00">-1.2</text>
<circle cx="253.2" cy="175.1" r="4" fill="#ffffff" stroke="#e07b00" stroke-width="2.4"/>
<text x="253.2" y="164.1" text-anchor="middle" font-size="10.5" fill="#e07b00">+7.8</text>
<circle cx="340.8" cy="265.8" r="4" fill="#ffffff" stroke="#e07b00" stroke-width="2.4"/>
<text x="340.8" y="254.8" text-anchor="middle" font-size="10.5" fill="#e07b00">-13.9</text>
<circle cx="428.4" cy="208.2" r="4" fill="#ffffff" stroke="#e07b00" stroke-width="2.4"/>
<text x="428.4" y="197.2" text-anchor="middle" font-size="10.5" fill="#e07b00">-0.1</text>
<circle cx="516.0" cy="202.7" r="4" fill="#ffffff" stroke="#e07b00" stroke-width="2.4"/>
<text x="516.0" y="191.7" text-anchor="middle" font-size="10.5" fill="#e07b00">+1.2</text>
<circle cx="603.6" cy="276.7" r="4" fill="#ffffff" stroke="#e07b00" stroke-width="2.4"/>
<text x="603.6" y="265.7" text-anchor="middle" font-size="10.5" fill="#e07b00">-16.5</text>
<circle cx="691.2" cy="296.6" r="4" fill="#ffffff" stroke="#e07b00" stroke-width="2.4"/>
<text x="691.2" y="285.6" text-anchor="middle" font-size="10.5" fill="#e07b00">-21.2</text>
<circle cx="778.8" cy="216.2" r="4" fill="#ffffff" stroke="#e07b00" stroke-width="2.4"/>
<text x="778.8" y="205.2" text-anchor="middle" font-size="10.5" fill="#e07b00">-2.0</text>
<circle cx="866.4" cy="245.0" r="4" fill="#ffffff" stroke="#e07b00" stroke-width="2.4"/>
<text x="866.4" y="234.0" text-anchor="middle" font-size="10.5" fill="#e07b00">-8.9</text>
<circle cx="954.0" cy="190.1" r="4" fill="#ffffff" stroke="#e07b00" stroke-width="2.4"/>
<text x="954.0" y="179.1" text-anchor="middle" font-size="10.5" fill="#e07b00">+4.2</text>
<rect x="78" y="426" width="13" height="13" rx="3" fill="#2a78d6"/>
<text x="97" y="437" font-size="12.5" fill="#0b0b0b">Price ratio</text>
<rect x="186" y="426" width="13" height="13" rx="3" fill="#1a9e5c"/>
<text x="205" y="437" font-size="12.5" fill="#0b0b0b">PAT ratio</text>
<rect x="279" y="426" width="13" height="13" rx="3" fill="#e07b00"/>
<text x="298" y="437" font-size="12.5" fill="#0b0b0b">Operating-profit ratio</text>
</svg>
