<svg xmlns="http://www.w3.org/2000/svg" viewBox="0 0 980 460" width="980" height="460" font-family="Helvetica,Arial,sans-serif">
<rect width="980" height="460" fill="#ffffff"/>
<text x="490" y="26" text-anchor="middle" font-size="17" font-weight="700" fill="#0b0b0b">Godfrey Phillips India Ltd. (GODFRYPHLP) vs Nifty 50 — yearly change in each ratio</text>
<text x="490" y="44" text-anchor="middle" font-size="12" fill="#52514e">Above 0 the company gained on the index that year; below 0 it lagged</text>
<line x1="78" y1="54.0" x2="954" y2="54.0" stroke="#e4e3df" stroke-width="1"/>
<text x="68" y="58.0" text-anchor="end" font-size="12" fill="#52514e">+217%</text>
<line x1="78" y1="131.5" x2="954" y2="131.5" stroke="#e4e3df" stroke-width="1"/>
<text x="68" y="135.5" text-anchor="end" font-size="12" fill="#52514e">+148%</text>
<line x1="78" y1="209.0" x2="954" y2="209.0" stroke="#e4e3df" stroke-width="1"/>
<text x="68" y="213.0" text-anchor="end" font-size="12" fill="#52514e">+78%</text>
<line x1="78" y1="286.5" x2="954" y2="286.5" stroke="#e4e3df" stroke-width="1"/>
<text x="68" y="290.5" text-anchor="end" font-size="12" fill="#52514e">+9%</text>
<line x1="78" y1="364.0" x2="954" y2="364.0" stroke="#e4e3df" stroke-width="1"/>
<text x="68" y="368.0" text-anchor="end" font-size="12" fill="#52514e">-60%</text>
<line x1="78" y1="296.6" x2="954" y2="296.6" stroke="#9b9a94" stroke-width="1.5" stroke-dasharray="6 4"/>
<line x1="78" y1="364.0" x2="954" y2="364.0" stroke="#52514e" stroke-width="1"/>
<line x1="78.0" y1="364.0" x2="78.0" y2="369.0" stroke="#52514e" stroke-width="1"/>
<text x="78.0" y="384" text-anchor="middle" font-size="12" fill="#52514e">FY2016</text>
<line x1="165.6" y1="364.0" x2="165.6" y2="369.0" stroke="#52514e" stroke-width="1"/>
<text x="165.6" y="384" text-anchor="middle" font-size="12" fill="#52514e">FY2017</text>
<line x1="253.2" y1="364.0" x2="253.2" y2="369.0" stroke="#52514e" stroke-width="1"/>
<text x="253.2" y="384" text-anchor="middle" font-size="12" fill="#52514e">FY2018</text>
<line x1="340.8" y1="364.0" x2="340.8" y2="369.0" stroke="#52514e" stroke-width="1"/>
<text x="340.8" y="384" text-anchor="middle" font-size="12" fill="#52514e">FY2019</text>
<line x1="428.4" y1="364.0" x2="428.4" y2="369.0" stroke="#52514e" stroke-width="1"/>
<text x="428.4" y="384" text-anchor="middle" font-size="12" fill="#52514e">FY2020</text>
<line x1="516.0" y1="364.0" x2="516.0" y2="369.0" stroke="#52514e" stroke-width="1"/>
<text x="516.0" y="384" text-anchor="middle" font-size="12" fill="#52514e">FY2021</text>
<line x1="603.6" y1="364.0" x2="603.6" y2="369.0" stroke="#52514e" stroke-width="1"/>
<text x="603.6" y="384" text-anchor="middle" font-size="12" fill="#52514e">FY2022</text>
<line x1="691.2" y1="364.0" x2="691.2" y2="369.0" stroke="#52514e" stroke-width="1"/>
<text x="691.2" y="384" text-anchor="middle" font-size="12" fill="#52514e">FY2023</text>
<line x1="778.8" y1="364.0" x2="778.8" y2="369.0" stroke="#52514e" stroke-width="1"/>
<text x="778.8" y="384" text-anchor="middle" font-size="12" fill="#52514e">FY2024</text>
<line x1="866.4" y1="364.0" x2="866.4" y2="369.0" stroke="#52514e" stroke-width="1"/>
<text x="866.4" y="384" text-anchor="middle" font-size="12" fill="#52514e">FY2025</text>
<line x1="954.0" y1="364.0" x2="954.0" y2="369.0" stroke="#52514e" stroke-width="1"/>
<text x="954.0" y="384" text-anchor="middle" font-size="12" fill="#52514e">FY2026</text>
<polyline points="78.0,79.8 165.6,318.4 253.2,338.2 340.8,266.9 428.4,298.1 516.0,335.0 603.6,302.9 691.2,217.6 778.8,256.7 866.4,180.8 954.0,314.2" fill="none" stroke="#2a78d6" stroke-width="2.6" stroke-linejoin="round" stroke-linecap="round"/>
<circle cx="78.0" cy="79.8" r="4" fill="#ffffff" stroke="#2a78d6" stroke-width="2.4"/>
<text x="78.0" y="68.8" text-anchor="middle" font-size="10.5" fill="#2a78d6">+193.9</text>
<circle cx="165.6" cy="318.4" r="4" fill="#ffffff" stroke="#2a78d6" stroke-width="2.4"/>
<text x="165.6" y="307.4" text-anchor="middle" font-size="10.5" fill="#2a78d6">-19.6</text>
<circle cx="253.2" cy="338.2" r="4" fill="#ffffff" stroke="#2a78d6" stroke-width="2.4"/>
<text x="253.2" y="327.2" text-anchor="middle" font-size="10.5" fill="#2a78d6">-37.2</text>
<circle cx="340.8" cy="266.9" r="4" fill="#ffffff" stroke="#2a78d6" stroke-width="2.4"/>
<text x="340.8" y="255.9" text-anchor="middle" font-size="10.5" fill="#2a78d6">+26.5</text>
<circle cx="428.4" cy="298.1" r="4" fill="#ffffff" stroke="#2a78d6" stroke-width="2.4"/>
<text x="428.4" y="287.1" text-anchor="middle" font-size="10.5" fill="#2a78d6">-1.4</text>
<circle cx="516.0" cy="335.0" r="4" fill="#ffffff" stroke="#2a78d6" stroke-width="2.4"/>
<text x="516.0" y="324.0" text-anchor="middle" font-size="10.5" fill="#2a78d6">-34.4</text>
<circle cx="603.6" cy="302.9" r="4" fill="#ffffff" stroke="#2a78d6" stroke-width="2.4"/>
<text x="603.6" y="291.9" text-anchor="middle" font-size="10.5" fill="#2a78d6">-5.7</text>
<circle cx="691.2" cy="217.6" r="4" fill="#ffffff" stroke="#2a78d6" stroke-width="2.4"/>
<text x="691.2" y="206.6" text-anchor="middle" font-size="10.5" fill="#2a78d6">+70.6</text>
<circle cx="778.8" cy="256.7" r="4" fill="#ffffff" stroke="#2a78d6" stroke-width="2.4"/>
<text x="778.8" y="245.7" text-anchor="middle" font-size="10.5" fill="#2a78d6">+35.7</text>
<circle cx="866.4" cy="180.8" r="4" fill="#ffffff" stroke="#2a78d6" stroke-width="2.4"/>
<text x="866.4" y="169.8" text-anchor="middle" font-size="10.5" fill="#2a78d6">+103.6</text>
<circle cx="954.0" cy="314.2" r="4" fill="#ffffff" stroke="#2a78d6" stroke-width="2.4"/>
<text x="954.0" y="303.2" text-anchor="middle" font-size="10.5" fill="#2a78d6">-15.8</text>
<polyline points="78.0,309.8 165.6,323.4 253.2,275.0 340.8,239.1 428.4,239.3 516.0,317.6 603.6,321.1 691.2,256.5 778.8,294.3 866.4,285.5 954.0,268.5" fill="none" stroke="#1a9e5c" stroke-width="2.6" stroke-linejoin="round" stroke-linecap="round"/>
<circle cx="78.0" cy="309.8" r="4" fill="#ffffff" stroke="#1a9e5c" stroke-width="2.4"/>
<text x="78.0" y="326.8" text-anchor="middle" font-size="10.5" fill="#1a9e5c">-11.9</text>
<circle cx="165.6" cy="323.4" r="4" fill="#ffffff" stroke="#1a9e5c" stroke-width="2.4"/>
<text x="165.6" y="340.4" text-anchor="middle" font-size="10.5" fill="#1a9e5c">-24.0</text>
<circle cx="253.2" cy="275.0" r="4" fill="#ffffff" stroke="#1a9e5c" stroke-width="2.4"/>
<text x="253.2" y="292.0" text-anchor="middle" font-size="10.5" fill="#1a9e5c">+19.3</text>
<circle cx="340.8" cy="239.1" r="4" fill="#ffffff" stroke="#1a9e5c" stroke-width="2.4"/>
<text x="340.8" y="256.1" text-anchor="middle" font-size="10.5" fill="#1a9e5c">+51.4</text>
<circle cx="428.4" cy="239.3" r="4" fill="#ffffff" stroke="#1a9e5c" stroke-width="2.4"/>
<text x="428.4" y="256.3" text-anchor="middle" font-size="10.5" fill="#1a9e5c">+51.2</text>
<circle cx="516.0" cy="317.6" r="4" fill="#ffffff" stroke="#1a9e5c" stroke-width="2.4"/>
<text x="516.0" y="334.6" text-anchor="middle" font-size="10.5" fill="#1a9e5c">-18.8</text>
<circle cx="603.6" cy="321.1" r="4" fill="#ffffff" stroke="#1a9e5c" stroke-width="2.4"/>
<text x="603.6" y="338.1" text-anchor="middle" font-size="10.5" fill="#1a9e5c">-21.9</text>
<circle cx="691.2" cy="256.5" r="4" fill="#ffffff" stroke="#1a9e5c" stroke-width="2.4"/>
<text x="691.2" y="273.5" text-anchor="middle" font-size="10.5" fill="#1a9e5c">+35.8</text>
<circle cx="778.8" cy="294.3" r="4" fill="#ffffff" stroke="#1a9e5c" stroke-width="2.4"/>
<text x="778.8" y="311.3" text-anchor="middle" font-size="10.5" fill="#1a9e5c">+2.0</text>
<circle cx="866.4" cy="285.5" r="4" fill="#ffffff" stroke="#1a9e5c" stroke-width="2.4"/>
<text x="866.4" y="302.5" text-anchor="middle" font-size="10.5" fill="#1a9e5c">+9.9</text>
<circle cx="954.0" cy="268.5" r="4" fill="#ffffff" stroke="#1a9e5c" stroke-width="2.4"/>
<text x="954.0" y="285.5" text-anchor="middle" font-size="10.5" fill="#1a9e5c">+25.1</text>
<polyline points="78.0,314.5 165.6,321.4 253.2,293.1 340.8,269.7 428.4,249.1 516.0,315.8 603.6,311.2 691.2,291.8 778.8,297.6 866.4,270.8 954.0,260.1" fill="none" stroke="#e07b00" stroke-width="2.6" stroke-linejoin="round" stroke-linecap="round"/>
<circle cx="78.0" cy="314.5" r="4" fill="#ffffff" stroke="#e07b00" stroke-width="2.4"/>
<text x="78.0" y="303.5" text-anchor="middle" font-size="10.5" fill="#e07b00">-16.1</text>
<circle cx="165.6" cy="321.4" r="4" fill="#ffffff" stroke="#e07b00" stroke-width="2.4"/>
<text x="165.6" y="310.4" text-anchor="middle" font-size="10.5" fill="#e07b00">-22.2</text>
<circle cx="253.2" cy="293.1" r="4" fill="#ffffff" stroke="#e07b00" stroke-width="2.4"/>
<text x="253.2" y="282.1" text-anchor="middle" font-size="10.5" fill="#e07b00">+3.1</text>
<circle cx="340.8" cy="269.7" r="4" fill="#ffffff" stroke="#e07b00" stroke-width="2.4"/>
<text x="340.8" y="258.7" text-anchor="middle" font-size="10.5" fill="#e07b00">+24.1</text>
<circle cx="428.4" cy="249.1" r="4" fill="#ffffff" stroke="#e07b00" stroke-width="2.4"/>
<text x="428.4" y="238.1" text-anchor="middle" font-size="10.5" fill="#e07b00">+42.5</text>
<circle cx="516.0" cy="315.8" r="4" fill="#ffffff" stroke="#e07b00" stroke-width="2.4"/>
<text x="516.0" y="304.8" text-anchor="middle" font-size="10.5" fill="#e07b00">-17.2</text>
<circle cx="603.6" cy="311.2" r="4" fill="#ffffff" stroke="#e07b00" stroke-width="2.4"/>
<text x="603.6" y="300.2" text-anchor="middle" font-size="10.5" fill="#e07b00">-13.1</text>
<circle cx="691.2" cy="291.8" r="4" fill="#ffffff" stroke="#e07b00" stroke-width="2.4"/>
<text x="691.2" y="280.8" text-anchor="middle" font-size="10.5" fill="#e07b00">+4.2</text>
<circle cx="778.8" cy="297.6" r="4" fill="#ffffff" stroke="#e07b00" stroke-width="2.4"/>
<text x="778.8" y="286.6" text-anchor="middle" font-size="10.5" fill="#e07b00">-0.9</text>
<circle cx="866.4" cy="270.8" r="4" fill="#ffffff" stroke="#e07b00" stroke-width="2.4"/>
<text x="866.4" y="259.8" text-anchor="middle" font-size="10.5" fill="#e07b00">+23.0</text>
<circle cx="954.0" cy="260.1" r="4" fill="#ffffff" stroke="#e07b00" stroke-width="2.4"/>
<text x="954.0" y="249.1" text-anchor="middle" font-size="10.5" fill="#e07b00">+32.6</text>
<rect x="78" y="426" width="13" height="13" rx="3" fill="#2a78d6"/>
<text x="97" y="437" font-size="12.5" fill="#0b0b0b">Price ratio</text>
<rect x="186" y="426" width="13" height="13" rx="3" fill="#1a9e5c"/>
<text x="205" y="437" font-size="12.5" fill="#0b0b0b">PAT ratio</text>
<rect x="279" y="426" width="13" height="13" rx="3" fill="#e07b00"/>
<text x="298" y="437" font-size="12.5" fill="#0b0b0b">Operating-profit ratio</text>
</svg>
