<svg xmlns="http://www.w3.org/2000/svg" viewBox="0 0 980 460" width="980" height="460" font-family="Helvetica,Arial,sans-serif">
<rect width="980" height="460" fill="#ffffff"/>
<text x="490" y="26" text-anchor="middle" font-size="17" font-weight="700" fill="#0b0b0b">Jyoti CNC Auto. (JYOTICNC) vs Nifty 50 — yearly change in each ratio</text>
<text x="490" y="44" text-anchor="middle" font-size="12" fill="#52514e">Above 0 the company gained on the index that year; below 0 it lagged</text>
<line x1="78" y1="54.0" x2="954" y2="54.0" stroke="#e4e3df" stroke-width="1"/>
<text x="68" y="58.0" text-anchor="end" font-size="12" fill="#52514e">+2,793%</text>
<line x1="78" y1="131.5" x2="954" y2="131.5" stroke="#e4e3df" stroke-width="1"/>
<text x="68" y="135.5" text-anchor="end" font-size="12" fill="#52514e">+1,927%</text>
<line x1="78" y1="209.0" x2="954" y2="209.0" stroke="#e4e3df" stroke-width="1"/>
<text x="68" y="213.0" text-anchor="end" font-size="12" fill="#52514e">+1,060%</text>
<line x1="78" y1="286.5" x2="954" y2="286.5" stroke="#e4e3df" stroke-width="1"/>
<text x="68" y="290.5" text-anchor="end" font-size="12" fill="#52514e">+194%</text>
<line x1="78" y1="364.0" x2="954" y2="364.0" stroke="#e4e3df" stroke-width="1"/>
<text x="68" y="368.0" text-anchor="end" font-size="12" fill="#52514e">-672%</text>
<line x1="78" y1="303.8" x2="954" y2="303.8" stroke="#9b9a94" stroke-width="1.5" stroke-dasharray="6 4"/>
<line x1="78" y1="364.0" x2="954" y2="364.0" stroke="#52514e" stroke-width="1"/>
<line x1="78.0" y1="364.0" x2="78.0" y2="369.0" stroke="#52514e" stroke-width="1"/>
<text x="78.0" y="384" text-anchor="middle" font-size="12" fill="#52514e">FY2020</text>
<line x1="224.0" y1="364.0" x2="224.0" y2="369.0" stroke="#52514e" stroke-width="1"/>
<text x="224.0" y="384" text-anchor="middle" font-size="12" fill="#52514e">FY2021</text>
<line x1="370.0" y1="364.0" x2="370.0" y2="369.0" stroke="#52514e" stroke-width="1"/>
<text x="370.0" y="384" text-anchor="middle" font-size="12" fill="#52514e">FY2022</text>
<line x1="516.0" y1="364.0" x2="516.0" y2="369.0" stroke="#52514e" stroke-width="1"/>
<text x="516.0" y="384" text-anchor="middle" font-size="12" fill="#52514e">FY2023</text>
<line x1="662.0" y1="364.0" x2="662.0" y2="369.0" stroke="#52514e" stroke-width="1"/>
<text x="662.0" y="384" text-anchor="middle" font-size="12" fill="#52514e">FY2024</text>
<line x1="808.0" y1="364.0" x2="808.0" y2="369.0" stroke="#52514e" stroke-width="1"/>
<text x="808.0" y="384" text-anchor="middle" font-size="12" fill="#52514e">FY2025</text>
<line x1="954.0" y1="364.0" x2="954.0" y2="369.0" stroke="#52514e" stroke-width="1"/>
<text x="954.0" y="384" text-anchor="middle" font-size="12" fill="#52514e">FY2026</text>
<polyline points="808.0,302.1 954.0,306.6" fill="none" stroke="#2a78d6" stroke-width="2.6" stroke-linejoin="round" stroke-linecap="round"/>
<circle cx="808.0" cy="302.1" r="4" fill="#ffffff" stroke="#2a78d6" stroke-width="2.4"/>
<text x="808.0" y="291.1" text-anchor="middle" font-size="10.5" fill="#2a78d6">+19.7</text>
<circle cx="954.0" cy="306.6" r="4" fill="#ffffff" stroke="#2a78d6" stroke-width="2.4"/>
<text x="954.0" y="295.6" text-anchor="middle" font-size="10.5" fill="#2a78d6">-30.9</text>
<polyline points="78.0,338.2 224.0,306.4 370.0,298.6 516.0,295.7 662.0,79.8 808.0,295.8 954.0,304.4" fill="none" stroke="#1a9e5c" stroke-width="2.6" stroke-linejoin="round" stroke-linecap="round"/>
<circle cx="78.0" cy="338.2" r="4" fill="#ffffff" stroke="#1a9e5c" stroke-width="2.4"/>
<text x="78.0" y="355.2" text-anchor="middle" font-size="10.5" fill="#1a9e5c">-383.7</text>
<circle cx="224.0" cy="306.4" r="4" fill="#ffffff" stroke="#1a9e5c" stroke-width="2.4"/>
<text x="224.0" y="323.4" text-anchor="middle" font-size="10.5" fill="#1a9e5c">-28.1</text>
<circle cx="370.0" cy="298.6" r="4" fill="#ffffff" stroke="#1a9e5c" stroke-width="2.4"/>
<text x="370.0" y="315.6" text-anchor="middle" font-size="10.5" fill="#1a9e5c">+58.2</text>
<circle cx="516.0" cy="295.7" r="4" fill="#ffffff" stroke="#1a9e5c" stroke-width="2.4"/>
<text x="516.0" y="312.7" text-anchor="middle" font-size="10.5" fill="#1a9e5c">+91.0</text>
<circle cx="662.0" cy="79.8" r="4" fill="#ffffff" stroke="#1a9e5c" stroke-width="2.4"/>
<text x="662.0" y="96.8" text-anchor="middle" font-size="10.5" fill="#1a9e5c">+2504.5</text>
<circle cx="808.0" cy="295.8" r="4" fill="#ffffff" stroke="#1a9e5c" stroke-width="2.4"/>
<text x="808.0" y="312.8" text-anchor="middle" font-size="10.5" fill="#1a9e5c">+89.6</text>
<circle cx="954.0" cy="304.4" r="4" fill="#ffffff" stroke="#1a9e5c" stroke-width="2.4"/>
<text x="954.0" y="321.4" text-anchor="middle" font-size="10.5" fill="#1a9e5c">-6.5</text>
<polyline points="78.0,312.1 224.0,283.9 370.0,293.4 516.0,305.1 662.0,281.9 808.0,299.0 954.0,303.3" fill="none" stroke="#e07b00" stroke-width="2.6" stroke-linejoin="round" stroke-linecap="round"/>
<circle cx="78.0" cy="312.1" r="4" fill="#ffffff" stroke="#e07b00" stroke-width="2.4"/>
<text x="78.0" y="301.1" text-anchor="middle" font-size="10.5" fill="#e07b00">-92.6</text>
<circle cx="224.0" cy="283.9" r="4" fill="#ffffff" stroke="#e07b00" stroke-width="2.4"/>
<text x="224.0" y="272.9" text-anchor="middle" font-size="10.5" fill="#e07b00">+223.5</text>
<circle cx="370.0" cy="293.4" r="4" fill="#ffffff" stroke="#e07b00" stroke-width="2.4"/>
<text x="370.0" y="282.4" text-anchor="middle" font-size="10.5" fill="#e07b00">+116.8</text>
<circle cx="516.0" cy="305.1" r="4" fill="#ffffff" stroke="#e07b00" stroke-width="2.4"/>
<text x="516.0" y="294.1" text-anchor="middle" font-size="10.5" fill="#e07b00">-13.4</text>
<circle cx="662.0" cy="281.9" r="4" fill="#ffffff" stroke="#e07b00" stroke-width="2.4"/>
<text x="662.0" y="270.9" text-anchor="middle" font-size="10.5" fill="#e07b00">+245.0</text>
<circle cx="808.0" cy="299.0" r="4" fill="#ffffff" stroke="#e07b00" stroke-width="2.4"/>
<text x="808.0" y="288.0" text-anchor="middle" font-size="10.5" fill="#e07b00">+54.0</text>
<circle cx="954.0" cy="303.3" r="4" fill="#ffffff" stroke="#e07b00" stroke-width="2.4"/>
<text x="954.0" y="292.3" text-anchor="middle" font-size="10.5" fill="#e07b00">+5.7</text>
<rect x="78" y="426" width="13" height="13" rx="3" fill="#2a78d6"/>
<text x="97" y="437" font-size="12.5" fill="#0b0b0b">Price ratio</text>
<rect x="186" y="426" width="13" height="13" rx="3" fill="#1a9e5c"/>
<text x="205" y="437" font-size="12.5" fill="#0b0b0b">PAT ratio</text>
<rect x="279" y="426" width="13" height="13" rx="3" fill="#e07b00"/>
<text x="298" y="437" font-size="12.5" fill="#0b0b0b">Operating-profit ratio</text>
</svg>
