<svg xmlns="http://www.w3.org/2000/svg" viewBox="0 0 980 460" width="980" height="460" font-family="Helvetica,Arial,sans-serif">
<rect width="980" height="460" fill="#ffffff"/>
<text x="490" y="26" text-anchor="middle" font-size="17" font-weight="700" fill="#0b0b0b">L T Foods (LTFOODS) vs Nifty 50 — yearly change in each ratio</text>
<text x="490" y="44" text-anchor="middle" font-size="12" fill="#52514e">Above 0 the company gained on the index that year; below 0 it lagged</text>
<line x1="78" y1="54.0" x2="954" y2="54.0" stroke="#e4e3df" stroke-width="1"/>
<text x="68" y="58.0" text-anchor="end" font-size="12" fill="#52514e">+166%</text>
<line x1="78" y1="131.5" x2="954" y2="131.5" stroke="#e4e3df" stroke-width="1"/>
<text x="68" y="135.5" text-anchor="end" font-size="12" fill="#52514e">+105%</text>
<line x1="78" y1="209.0" x2="954" y2="209.0" stroke="#e4e3df" stroke-width="1"/>
<text x="68" y="213.0" text-anchor="end" font-size="12" fill="#52514e">+44%</text>
<line x1="78" y1="286.5" x2="954" y2="286.5" stroke="#e4e3df" stroke-width="1"/>
<text x="68" y="290.5" text-anchor="end" font-size="12" fill="#52514e">-17%</text>
<line x1="78" y1="364.0" x2="954" y2="364.0" stroke="#e4e3df" stroke-width="1"/>
<text x="68" y="368.0" text-anchor="end" font-size="12" fill="#52514e">-78%</text>
<line x1="78" y1="265.1" x2="954" y2="265.1" stroke="#9b9a94" stroke-width="1.5" stroke-dasharray="6 4"/>
<line x1="78" y1="364.0" x2="954" y2="364.0" stroke="#52514e" stroke-width="1"/>
<line x1="78.0" y1="364.0" x2="78.0" y2="369.0" stroke="#52514e" stroke-width="1"/>
<text x="78.0" y="384" text-anchor="middle" font-size="12" fill="#52514e">FY2016</text>
<line x1="165.6" y1="364.0" x2="165.6" y2="369.0" stroke="#52514e" stroke-width="1"/>
<text x="165.6" y="384" text-anchor="middle" font-size="12" fill="#52514e">FY2017</text>
<line x1="253.2" y1="364.0" x2="253.2" y2="369.0" stroke="#52514e" stroke-width="1"/>
<text x="253.2" y="384" text-anchor="middle" font-size="12" fill="#52514e">FY2018</text>
<line x1="340.8" y1="364.0" x2="340.8" y2="369.0" stroke="#52514e" stroke-width="1"/>
<text x="340.8" y="384" text-anchor="middle" font-size="12" fill="#52514e">FY2019</text>
<line x1="428.4" y1="364.0" x2="428.4" y2="369.0" stroke="#52514e" stroke-width="1"/>
<text x="428.4" y="384" text-anchor="middle" font-size="12" fill="#52514e">FY2020</text>
<line x1="516.0" y1="364.0" x2="516.0" y2="369.0" stroke="#52514e" stroke-width="1"/>
<text x="516.0" y="384" text-anchor="middle" font-size="12" fill="#52514e">FY2021</text>
<line x1="603.6" y1="364.0" x2="603.6" y2="369.0" stroke="#52514e" stroke-width="1"/>
<text x="603.6" y="384" text-anchor="middle" font-size="12" fill="#52514e">FY2022</text>
<line x1="691.2" y1="364.0" x2="691.2" y2="369.0" stroke="#52514e" stroke-width="1"/>
<text x="691.2" y="384" text-anchor="middle" font-size="12" fill="#52514e">FY2023</text>
<line x1="778.8" y1="364.0" x2="778.8" y2="369.0" stroke="#52514e" stroke-width="1"/>
<text x="778.8" y="384" text-anchor="middle" font-size="12" fill="#52514e">FY2024</text>
<line x1="866.4" y1="364.0" x2="866.4" y2="369.0" stroke="#52514e" stroke-width="1"/>
<text x="866.4" y="384" text-anchor="middle" font-size="12" fill="#52514e">FY2025</text>
<line x1="954.0" y1="364.0" x2="954.0" y2="369.0" stroke="#52514e" stroke-width="1"/>
<text x="954.0" y="384" text-anchor="middle" font-size="12" fill="#52514e">FY2026</text>
<polyline points="78.0,90.6 165.6,79.8 253.2,250.0 340.8,338.2 428.4,316.0 516.0,140.9 603.6,247.0 691.2,243.5 778.8,194.6 866.4,152.4 954.0,269.3" fill="none" stroke="#2a78d6" stroke-width="2.6" stroke-linejoin="round" stroke-linecap="round"/>
<circle cx="78.0" cy="90.6" r="4" fill="#ffffff" stroke="#2a78d6" stroke-width="2.4"/>
<text x="78.0" y="79.6" text-anchor="middle" font-size="10.5" fill="#2a78d6">+137.2</text>
<circle cx="165.6" cy="79.8" r="4" fill="#ffffff" stroke="#2a78d6" stroke-width="2.4"/>
<text x="165.6" y="68.8" text-anchor="middle" font-size="10.5" fill="#2a78d6">+145.6</text>
<circle cx="253.2" cy="250.0" r="4" fill="#ffffff" stroke="#2a78d6" stroke-width="2.4"/>
<text x="253.2" y="239.0" text-anchor="middle" font-size="10.5" fill="#2a78d6">+11.9</text>
<circle cx="340.8" cy="338.2" r="4" fill="#ffffff" stroke="#2a78d6" stroke-width="2.4"/>
<text x="340.8" y="327.2" text-anchor="middle" font-size="10.5" fill="#2a78d6">-57.4</text>
<circle cx="428.4" cy="316.0" r="4" fill="#ffffff" stroke="#2a78d6" stroke-width="2.4"/>
<text x="428.4" y="305.0" text-anchor="middle" font-size="10.5" fill="#2a78d6">-40.0</text>
<circle cx="516.0" cy="140.9" r="4" fill="#ffffff" stroke="#2a78d6" stroke-width="2.4"/>
<text x="516.0" y="129.9" text-anchor="middle" font-size="10.5" fill="#2a78d6">+97.6</text>
<circle cx="603.6" cy="247.0" r="4" fill="#ffffff" stroke="#2a78d6" stroke-width="2.4"/>
<text x="603.6" y="236.0" text-anchor="middle" font-size="10.5" fill="#2a78d6">+14.2</text>
<circle cx="691.2" cy="243.5" r="4" fill="#ffffff" stroke="#2a78d6" stroke-width="2.4"/>
<text x="691.2" y="232.5" text-anchor="middle" font-size="10.5" fill="#2a78d6">+17.0</text>
<circle cx="778.8" cy="194.6" r="4" fill="#ffffff" stroke="#2a78d6" stroke-width="2.4"/>
<text x="778.8" y="183.6" text-anchor="middle" font-size="10.5" fill="#2a78d6">+55.4</text>
<circle cx="866.4" cy="152.4" r="4" fill="#ffffff" stroke="#2a78d6" stroke-width="2.4"/>
<text x="866.4" y="141.4" text-anchor="middle" font-size="10.5" fill="#2a78d6">+88.6</text>
<circle cx="954.0" cy="269.3" r="4" fill="#ffffff" stroke="#2a78d6" stroke-width="2.4"/>
<text x="954.0" y="258.3" text-anchor="middle" font-size="10.5" fill="#2a78d6">-3.3</text>
<polyline points="78.0,278.0 165.6,177.5 253.2,246.4 340.8,280.3 428.4,203.6 516.0,238.7 603.6,301.2 691.2,242.2 778.8,249.1 866.4,274.4 954.0,278.2" fill="none" stroke="#1a9e5c" stroke-width="2.6" stroke-linejoin="round" stroke-linecap="round"/>
<circle cx="78.0" cy="278.0" r="4" fill="#ffffff" stroke="#1a9e5c" stroke-width="2.4"/>
<text x="78.0" y="295.0" text-anchor="middle" font-size="10.5" fill="#1a9e5c">-10.1</text>
<circle cx="165.6" cy="177.5" r="4" fill="#ffffff" stroke="#1a9e5c" stroke-width="2.4"/>
<text x="165.6" y="194.5" text-anchor="middle" font-size="10.5" fill="#1a9e5c">+68.9</text>
<circle cx="253.2" cy="246.4" r="4" fill="#ffffff" stroke="#1a9e5c" stroke-width="2.4"/>
<text x="253.2" y="263.4" text-anchor="middle" font-size="10.5" fill="#1a9e5c">+14.7</text>
<circle cx="340.8" cy="280.3" r="4" fill="#ffffff" stroke="#1a9e5c" stroke-width="2.4"/>
<text x="340.8" y="297.3" text-anchor="middle" font-size="10.5" fill="#1a9e5c">-11.9</text>
<circle cx="428.4" cy="203.6" r="4" fill="#ffffff" stroke="#1a9e5c" stroke-width="2.4"/>
<text x="428.4" y="220.6" text-anchor="middle" font-size="10.5" fill="#1a9e5c">+48.3</text>
<circle cx="516.0" cy="238.7" r="4" fill="#ffffff" stroke="#1a9e5c" stroke-width="2.4"/>
<text x="516.0" y="255.7" text-anchor="middle" font-size="10.5" fill="#1a9e5c">+20.8</text>
<circle cx="603.6" cy="301.2" r="4" fill="#ffffff" stroke="#1a9e5c" stroke-width="2.4"/>
<text x="603.6" y="318.2" text-anchor="middle" font-size="10.5" fill="#1a9e5c">-28.4</text>
<circle cx="691.2" cy="242.2" r="4" fill="#ffffff" stroke="#1a9e5c" stroke-width="2.4"/>
<text x="691.2" y="259.2" text-anchor="middle" font-size="10.5" fill="#1a9e5c">+18.0</text>
<circle cx="778.8" cy="249.1" r="4" fill="#ffffff" stroke="#1a9e5c" stroke-width="2.4"/>
<text x="778.8" y="266.1" text-anchor="middle" font-size="10.5" fill="#1a9e5c">+12.6</text>
<circle cx="866.4" cy="274.4" r="4" fill="#ffffff" stroke="#1a9e5c" stroke-width="2.4"/>
<text x="866.4" y="291.4" text-anchor="middle" font-size="10.5" fill="#1a9e5c">-7.3</text>
<circle cx="954.0" cy="278.2" r="4" fill="#ffffff" stroke="#1a9e5c" stroke-width="2.4"/>
<text x="954.0" y="295.2" text-anchor="middle" font-size="10.5" fill="#1a9e5c">-10.2</text>
<polyline points="78.0,228.8 165.6,265.8 253.2,257.7 340.8,284.0 428.4,248.3 516.0,256.2 603.6,291.0 691.2,268.7 778.8,242.1 866.4,267.0 954.0,244.0" fill="none" stroke="#e07b00" stroke-width="2.6" stroke-linejoin="round" stroke-linecap="round"/>
<circle cx="78.0" cy="228.8" r="4" fill="#ffffff" stroke="#e07b00" stroke-width="2.4"/>
<text x="78.0" y="217.8" text-anchor="middle" font-size="10.5" fill="#e07b00">+28.6</text>
<circle cx="165.6" cy="265.8" r="4" fill="#ffffff" stroke="#e07b00" stroke-width="2.4"/>
<text x="165.6" y="254.8" text-anchor="middle" font-size="10.5" fill="#e07b00">-0.5</text>
<circle cx="253.2" cy="257.7" r="4" fill="#ffffff" stroke="#e07b00" stroke-width="2.4"/>
<text x="253.2" y="246.7" text-anchor="middle" font-size="10.5" fill="#e07b00">+5.8</text>
<circle cx="340.8" cy="284.0" r="4" fill="#ffffff" stroke="#e07b00" stroke-width="2.4"/>
<text x="340.8" y="273.0" text-anchor="middle" font-size="10.5" fill="#e07b00">-14.9</text>
<circle cx="428.4" cy="248.3" r="4" fill="#ffffff" stroke="#e07b00" stroke-width="2.4"/>
<text x="428.4" y="237.3" text-anchor="middle" font-size="10.5" fill="#e07b00">+13.2</text>
<circle cx="516.0" cy="256.2" r="4" fill="#ffffff" stroke="#e07b00" stroke-width="2.4"/>
<text x="516.0" y="245.2" text-anchor="middle" font-size="10.5" fill="#e07b00">+7.1</text>
<circle cx="603.6" cy="291.0" r="4" fill="#ffffff" stroke="#e07b00" stroke-width="2.4"/>
<text x="603.6" y="280.0" text-anchor="middle" font-size="10.5" fill="#e07b00">-20.4</text>
<circle cx="691.2" cy="268.7" r="4" fill="#ffffff" stroke="#e07b00" stroke-width="2.4"/>
<text x="691.2" y="257.7" text-anchor="middle" font-size="10.5" fill="#e07b00">-2.8</text>
<circle cx="778.8" cy="242.1" r="4" fill="#ffffff" stroke="#e07b00" stroke-width="2.4"/>
<text x="778.8" y="231.1" text-anchor="middle" font-size="10.5" fill="#e07b00">+18.1</text>
<circle cx="866.4" cy="267.0" r="4" fill="#ffffff" stroke="#e07b00" stroke-width="2.4"/>
<text x="866.4" y="256.0" text-anchor="middle" font-size="10.5" fill="#e07b00">-1.5</text>
<circle cx="954.0" cy="244.0" r="4" fill="#ffffff" stroke="#e07b00" stroke-width="2.4"/>
<text x="954.0" y="233.0" text-anchor="middle" font-size="10.5" fill="#e07b00">+16.6</text>
<rect x="78" y="426" width="13" height="13" rx="3" fill="#2a78d6"/>
<text x="97" y="437" font-size="12.5" fill="#0b0b0b">Price ratio</text>
<rect x="186" y="426" width="13" height="13" rx="3" fill="#1a9e5c"/>
<text x="205" y="437" font-size="12.5" fill="#0b0b0b">PAT ratio</text>
<rect x="279" y="426" width="13" height="13" rx="3" fill="#e07b00"/>
<text x="298" y="437" font-size="12.5" fill="#0b0b0b">Operating-profit ratio</text>
</svg>
