<svg xmlns="http://www.w3.org/2000/svg" viewBox="0 0 980 460" width="980" height="460" font-family="Helvetica,Arial,sans-serif">
<rect width="980" height="460" fill="#ffffff"/>
<text x="490" y="26" text-anchor="middle" font-size="17" font-weight="700" fill="#0b0b0b">MSTC (MSTCLTD) vs Nifty 50 — yearly change in each ratio</text>
<text x="490" y="44" text-anchor="middle" font-size="12" fill="#52514e">Above 0 the company gained on the index that year; below 0 it lagged</text>
<line x1="78" y1="54.0" x2="954" y2="54.0" stroke="#e4e3df" stroke-width="1"/>
<text x="68" y="58.0" text-anchor="end" font-size="12" fill="#52514e">+1,873%</text>
<line x1="78" y1="131.5" x2="954" y2="131.5" stroke="#e4e3df" stroke-width="1"/>
<text x="68" y="135.5" text-anchor="end" font-size="12" fill="#52514e">+1,234%</text>
<line x1="78" y1="209.0" x2="954" y2="209.0" stroke="#e4e3df" stroke-width="1"/>
<text x="68" y="213.0" text-anchor="end" font-size="12" fill="#52514e">+595%</text>
<line x1="78" y1="286.5" x2="954" y2="286.5" stroke="#e4e3df" stroke-width="1"/>
<text x="68" y="290.5" text-anchor="end" font-size="12" fill="#52514e">-43%</text>
<line x1="78" y1="364.0" x2="954" y2="364.0" stroke="#e4e3df" stroke-width="1"/>
<text x="68" y="368.0" text-anchor="end" font-size="12" fill="#52514e">-682%</text>
<line x1="78" y1="281.2" x2="954" y2="281.2" stroke="#9b9a94" stroke-width="1.5" stroke-dasharray="6 4"/>
<line x1="78" y1="364.0" x2="954" y2="364.0" stroke="#52514e" stroke-width="1"/>
<line x1="78.0" y1="364.0" x2="78.0" y2="369.0" stroke="#52514e" stroke-width="1"/>
<text x="78.0" y="384" text-anchor="middle" font-size="12" fill="#52514e">FY2016</text>
<line x1="165.6" y1="364.0" x2="165.6" y2="369.0" stroke="#52514e" stroke-width="1"/>
<text x="165.6" y="384" text-anchor="middle" font-size="12" fill="#52514e">FY2017</text>
<line x1="253.2" y1="364.0" x2="253.2" y2="369.0" stroke="#52514e" stroke-width="1"/>
<text x="253.2" y="384" text-anchor="middle" font-size="12" fill="#52514e">FY2018</text>
<line x1="340.8" y1="364.0" x2="340.8" y2="369.0" stroke="#52514e" stroke-width="1"/>
<text x="340.8" y="384" text-anchor="middle" font-size="12" fill="#52514e">FY2019</text>
<line x1="428.4" y1="364.0" x2="428.4" y2="369.0" stroke="#52514e" stroke-width="1"/>
<text x="428.4" y="384" text-anchor="middle" font-size="12" fill="#52514e">FY2020</text>
<line x1="516.0" y1="364.0" x2="516.0" y2="369.0" stroke="#52514e" stroke-width="1"/>
<text x="516.0" y="384" text-anchor="middle" font-size="12" fill="#52514e">FY2021</text>
<line x1="603.6" y1="364.0" x2="603.6" y2="369.0" stroke="#52514e" stroke-width="1"/>
<text x="603.6" y="384" text-anchor="middle" font-size="12" fill="#52514e">FY2022</text>
<line x1="691.2" y1="364.0" x2="691.2" y2="369.0" stroke="#52514e" stroke-width="1"/>
<text x="691.2" y="384" text-anchor="middle" font-size="12" fill="#52514e">FY2023</text>
<line x1="778.8" y1="364.0" x2="778.8" y2="369.0" stroke="#52514e" stroke-width="1"/>
<text x="778.8" y="384" text-anchor="middle" font-size="12" fill="#52514e">FY2024</text>
<line x1="866.4" y1="364.0" x2="866.4" y2="369.0" stroke="#52514e" stroke-width="1"/>
<text x="866.4" y="384" text-anchor="middle" font-size="12" fill="#52514e">FY2025</text>
<line x1="954.0" y1="364.0" x2="954.0" y2="369.0" stroke="#52514e" stroke-width="1"/>
<text x="954.0" y="384" text-anchor="middle" font-size="12" fill="#52514e">FY2026</text>
<polyline points="78.0,321.0 165.6,262.7 253.2,286.5 340.8,338.2 428.4,265.2 516.0,281.6 603.6,279.1 691.2,280.6 778.8,286.8 866.4,266.3 954.0,287.7" fill="none" stroke="#2a78d6" stroke-width="2.6" stroke-linejoin="round" stroke-linecap="round"/>
<circle cx="78.0" cy="321.0" r="4" fill="#ffffff" stroke="#2a78d6" stroke-width="2.4"/>
<text x="78.0" y="310.0" text-anchor="middle" font-size="10.5" fill="#2a78d6">-327.5</text>
<circle cx="165.6" cy="262.7" r="4" fill="#ffffff" stroke="#2a78d6" stroke-width="2.4"/>
<text x="165.6" y="251.7" text-anchor="middle" font-size="10.5" fill="#2a78d6">+153.1</text>
<circle cx="253.2" cy="286.5" r="4" fill="#ffffff" stroke="#2a78d6" stroke-width="2.4"/>
<text x="253.2" y="275.5" text-anchor="middle" font-size="10.5" fill="#2a78d6">-43.1</text>
<circle cx="340.8" cy="338.2" r="4" fill="#ffffff" stroke="#2a78d6" stroke-width="2.4"/>
<text x="340.8" y="327.2" text-anchor="middle" font-size="10.5" fill="#2a78d6">-469.2</text>
<circle cx="428.4" cy="265.2" r="4" fill="#ffffff" stroke="#2a78d6" stroke-width="2.4"/>
<text x="428.4" y="254.2" text-anchor="middle" font-size="10.5" fill="#2a78d6">+132.3</text>
<circle cx="516.0" cy="281.6" r="4" fill="#ffffff" stroke="#2a78d6" stroke-width="2.4"/>
<text x="516.0" y="270.6" text-anchor="middle" font-size="10.5" fill="#2a78d6">-3.1</text>
<circle cx="603.6" cy="279.1" r="4" fill="#ffffff" stroke="#2a78d6" stroke-width="2.4"/>
<text x="603.6" y="268.1" text-anchor="middle" font-size="10.5" fill="#2a78d6">+18.0</text>
<circle cx="691.2" cy="280.6" r="4" fill="#ffffff" stroke="#2a78d6" stroke-width="2.4"/>
<text x="691.2" y="269.6" text-anchor="middle" font-size="10.5" fill="#2a78d6">+4.9</text>
<circle cx="778.8" cy="286.8" r="4" fill="#ffffff" stroke="#2a78d6" stroke-width="2.4"/>
<text x="778.8" y="275.8" text-anchor="middle" font-size="10.5" fill="#2a78d6">-45.7</text>
<circle cx="866.4" cy="266.3" r="4" fill="#ffffff" stroke="#2a78d6" stroke-width="2.4"/>
<text x="866.4" y="255.3" text-anchor="middle" font-size="10.5" fill="#2a78d6">+123.5</text>
<circle cx="954.0" cy="287.7" r="4" fill="#ffffff" stroke="#2a78d6" stroke-width="2.4"/>
<text x="954.0" y="276.7" text-anchor="middle" font-size="10.5" fill="#2a78d6">-52.9</text>
<polyline points="78.0,304.7 165.6,258.9 253.2,321.5 340.8,275.5 428.4,260.7 516.0,297.2 603.6,267.5 691.2,79.8 778.8,288.8 866.4,268.5 954.0,278.7" fill="none" stroke="#1a9e5c" stroke-width="2.6" stroke-linejoin="round" stroke-linecap="round"/>
<circle cx="78.0" cy="304.7" r="4" fill="#ffffff" stroke="#1a9e5c" stroke-width="2.4"/>
<text x="78.0" y="321.7" text-anchor="middle" font-size="10.5" fill="#1a9e5c">-193.3</text>
<circle cx="165.6" cy="258.9" r="4" fill="#ffffff" stroke="#1a9e5c" stroke-width="2.4"/>
<text x="165.6" y="275.9" text-anchor="middle" font-size="10.5" fill="#1a9e5c">+183.8</text>
<circle cx="253.2" cy="321.5" r="4" fill="#ffffff" stroke="#1a9e5c" stroke-width="2.4"/>
<text x="253.2" y="338.5" text-anchor="middle" font-size="10.5" fill="#1a9e5c">-331.9</text>
<circle cx="340.8" cy="275.5" r="4" fill="#ffffff" stroke="#1a9e5c" stroke-width="2.4"/>
<text x="340.8" y="292.5" text-anchor="middle" font-size="10.5" fill="#1a9e5c">+47.3</text>
<circle cx="428.4" cy="260.7" r="4" fill="#ffffff" stroke="#1a9e5c" stroke-width="2.4"/>
<text x="428.4" y="277.7" text-anchor="middle" font-size="10.5" fill="#1a9e5c">+169.7</text>
<circle cx="516.0" cy="297.2" r="4" fill="#ffffff" stroke="#1a9e5c" stroke-width="2.4"/>
<text x="516.0" y="314.2" text-anchor="middle" font-size="10.5" fill="#1a9e5c">-131.2</text>
<circle cx="603.6" cy="267.5" r="4" fill="#ffffff" stroke="#1a9e5c" stroke-width="2.4"/>
<text x="603.6" y="284.5" text-anchor="middle" font-size="10.5" fill="#1a9e5c">+113.1</text>
<circle cx="691.2" cy="79.8" r="4" fill="#ffffff" stroke="#1a9e5c" stroke-width="2.4"/>
<text x="691.2" y="96.8" text-anchor="middle" font-size="10.5" fill="#1a9e5c">+1659.9</text>
<circle cx="778.8" cy="288.8" r="4" fill="#ffffff" stroke="#1a9e5c" stroke-width="2.4"/>
<text x="778.8" y="305.8" text-anchor="middle" font-size="10.5" fill="#1a9e5c">-62.5</text>
<circle cx="866.4" cy="268.5" r="4" fill="#ffffff" stroke="#1a9e5c" stroke-width="2.4"/>
<text x="866.4" y="285.5" text-anchor="middle" font-size="10.5" fill="#1a9e5c">+104.9</text>
<circle cx="954.0" cy="278.7" r="4" fill="#ffffff" stroke="#1a9e5c" stroke-width="2.4"/>
<text x="954.0" y="295.7" text-anchor="middle" font-size="10.5" fill="#1a9e5c">+21.2</text>
<rect x="78" y="426" width="13" height="13" rx="3" fill="#2a78d6"/>
<text x="97" y="437" font-size="12.5" fill="#0b0b0b">PAT ratio</text>
<rect x="171" y="426" width="13" height="13" rx="3" fill="#1a9e5c"/>
<text x="190" y="437" font-size="12.5" fill="#0b0b0b">Operating-profit ratio</text>
</svg>
