<svg xmlns="http://www.w3.org/2000/svg" viewBox="0 0 980 460" width="980" height="460" font-family="Helvetica,Arial,sans-serif">
<rect width="980" height="460" fill="#ffffff"/>
<text x="490" y="26" text-anchor="middle" font-size="17" font-weight="700" fill="#0b0b0b">Neogen Chemicals (NEOGEN) vs Nifty 50 — yearly change in each ratio</text>
<text x="490" y="44" text-anchor="middle" font-size="12" fill="#52514e">Above 0 the company gained on the index that year; below 0 it lagged</text>
<line x1="78" y1="54.0" x2="954" y2="54.0" stroke="#e4e3df" stroke-width="1"/>
<text x="68" y="58.0" text-anchor="end" font-size="12" fill="#52514e">+89%</text>
<line x1="78" y1="131.5" x2="954" y2="131.5" stroke="#e4e3df" stroke-width="1"/>
<text x="68" y="135.5" text-anchor="end" font-size="12" fill="#52514e">+53%</text>
<line x1="78" y1="209.0" x2="954" y2="209.0" stroke="#e4e3df" stroke-width="1"/>
<text x="68" y="213.0" text-anchor="end" font-size="12" fill="#52514e">+17%</text>
<line x1="78" y1="286.5" x2="954" y2="286.5" stroke="#e4e3df" stroke-width="1"/>
<text x="68" y="290.5" text-anchor="end" font-size="12" fill="#52514e">-19%</text>
<line x1="78" y1="364.0" x2="954" y2="364.0" stroke="#e4e3df" stroke-width="1"/>
<text x="68" y="368.0" text-anchor="end" font-size="12" fill="#52514e">-55%</text>
<line x1="78" y1="245.9" x2="954" y2="245.9" stroke="#9b9a94" stroke-width="1.5" stroke-dasharray="6 4"/>
<line x1="78" y1="364.0" x2="954" y2="364.0" stroke="#52514e" stroke-width="1"/>
<line x1="78.0" y1="364.0" x2="78.0" y2="369.0" stroke="#52514e" stroke-width="1"/>
<text x="78.0" y="384" text-anchor="middle" font-size="12" fill="#52514e">FY2016</text>
<line x1="165.6" y1="364.0" x2="165.6" y2="369.0" stroke="#52514e" stroke-width="1"/>
<text x="165.6" y="384" text-anchor="middle" font-size="12" fill="#52514e">FY2017</text>
<line x1="253.2" y1="364.0" x2="253.2" y2="369.0" stroke="#52514e" stroke-width="1"/>
<text x="253.2" y="384" text-anchor="middle" font-size="12" fill="#52514e">FY2018</text>
<line x1="340.8" y1="364.0" x2="340.8" y2="369.0" stroke="#52514e" stroke-width="1"/>
<text x="340.8" y="384" text-anchor="middle" font-size="12" fill="#52514e">FY2019</text>
<line x1="428.4" y1="364.0" x2="428.4" y2="369.0" stroke="#52514e" stroke-width="1"/>
<text x="428.4" y="384" text-anchor="middle" font-size="12" fill="#52514e">FY2020</text>
<line x1="516.0" y1="364.0" x2="516.0" y2="369.0" stroke="#52514e" stroke-width="1"/>
<text x="516.0" y="384" text-anchor="middle" font-size="12" fill="#52514e">FY2021</text>
<line x1="603.6" y1="364.0" x2="603.6" y2="369.0" stroke="#52514e" stroke-width="1"/>
<text x="603.6" y="384" text-anchor="middle" font-size="12" fill="#52514e">FY2022</text>
<line x1="691.2" y1="364.0" x2="691.2" y2="369.0" stroke="#52514e" stroke-width="1"/>
<text x="691.2" y="384" text-anchor="middle" font-size="12" fill="#52514e">FY2023</text>
<line x1="778.8" y1="364.0" x2="778.8" y2="369.0" stroke="#52514e" stroke-width="1"/>
<text x="778.8" y="384" text-anchor="middle" font-size="12" fill="#52514e">FY2024</text>
<line x1="866.4" y1="364.0" x2="866.4" y2="369.0" stroke="#52514e" stroke-width="1"/>
<text x="866.4" y="384" text-anchor="middle" font-size="12" fill="#52514e">FY2025</text>
<line x1="954.0" y1="364.0" x2="954.0" y2="369.0" stroke="#52514e" stroke-width="1"/>
<text x="954.0" y="384" text-anchor="middle" font-size="12" fill="#52514e">FY2026</text>
<polyline points="78.0,256.9 165.6,135.9 253.2,156.5 340.8,79.8 428.4,157.2 516.0,269.9 603.6,251.8 691.2,254.9 778.8,338.2 866.4,271.6 954.0,304.6" fill="none" stroke="#2a78d6" stroke-width="2.6" stroke-linejoin="round" stroke-linecap="round"/>
<circle cx="78.0" cy="256.9" r="4" fill="#ffffff" stroke="#2a78d6" stroke-width="2.4"/>
<text x="78.0" y="245.9" text-anchor="middle" font-size="10.5" fill="#2a78d6">-5.1</text>
<circle cx="165.6" cy="135.9" r="4" fill="#ffffff" stroke="#2a78d6" stroke-width="2.4"/>
<text x="165.6" y="124.9" text-anchor="middle" font-size="10.5" fill="#2a78d6">+50.8</text>
<circle cx="253.2" cy="156.5" r="4" fill="#ffffff" stroke="#2a78d6" stroke-width="2.4"/>
<text x="253.2" y="145.5" text-anchor="middle" font-size="10.5" fill="#2a78d6">+41.3</text>
<circle cx="340.8" cy="79.8" r="4" fill="#ffffff" stroke="#2a78d6" stroke-width="2.4"/>
<text x="340.8" y="68.8" text-anchor="middle" font-size="10.5" fill="#2a78d6">+76.8</text>
<circle cx="428.4" cy="157.2" r="4" fill="#ffffff" stroke="#2a78d6" stroke-width="2.4"/>
<text x="428.4" y="146.2" text-anchor="middle" font-size="10.5" fill="#2a78d6">+41.0</text>
<circle cx="516.0" cy="269.9" r="4" fill="#ffffff" stroke="#2a78d6" stroke-width="2.4"/>
<text x="516.0" y="258.9" text-anchor="middle" font-size="10.5" fill="#2a78d6">-11.1</text>
<circle cx="603.6" cy="251.8" r="4" fill="#ffffff" stroke="#2a78d6" stroke-width="2.4"/>
<text x="603.6" y="240.8" text-anchor="middle" font-size="10.5" fill="#2a78d6">-2.7</text>
<circle cx="691.2" cy="254.9" r="4" fill="#ffffff" stroke="#2a78d6" stroke-width="2.4"/>
<text x="691.2" y="243.9" text-anchor="middle" font-size="10.5" fill="#2a78d6">-4.2</text>
<circle cx="778.8" cy="338.2" r="4" fill="#ffffff" stroke="#2a78d6" stroke-width="2.4"/>
<text x="778.8" y="327.2" text-anchor="middle" font-size="10.5" fill="#2a78d6">-42.7</text>
<circle cx="866.4" cy="271.6" r="4" fill="#ffffff" stroke="#2a78d6" stroke-width="2.4"/>
<text x="866.4" y="260.6" text-anchor="middle" font-size="10.5" fill="#2a78d6">-11.9</text>
<circle cx="954.0" cy="304.6" r="4" fill="#ffffff" stroke="#2a78d6" stroke-width="2.4"/>
<text x="954.0" y="293.6" text-anchor="middle" font-size="10.5" fill="#2a78d6">-27.2</text>
<polyline points="78.0,240.7 165.6,155.7 253.2,146.2 340.8,205.5 428.4,179.2 516.0,246.0 603.6,243.9 691.2,233.7 778.8,274.7 866.4,209.8 954.0,247.6" fill="none" stroke="#1a9e5c" stroke-width="2.6" stroke-linejoin="round" stroke-linecap="round"/>
<circle cx="78.0" cy="240.7" r="4" fill="#ffffff" stroke="#1a9e5c" stroke-width="2.4"/>
<text x="78.0" y="257.7" text-anchor="middle" font-size="10.5" fill="#1a9e5c">+2.4</text>
<circle cx="165.6" cy="155.7" r="4" fill="#ffffff" stroke="#1a9e5c" stroke-width="2.4"/>
<text x="165.6" y="172.7" text-anchor="middle" font-size="10.5" fill="#1a9e5c">+41.7</text>
<circle cx="253.2" cy="146.2" r="4" fill="#ffffff" stroke="#1a9e5c" stroke-width="2.4"/>
<text x="253.2" y="163.2" text-anchor="middle" font-size="10.5" fill="#1a9e5c">+46.1</text>
<circle cx="340.8" cy="205.5" r="4" fill="#ffffff" stroke="#1a9e5c" stroke-width="2.4"/>
<text x="340.8" y="222.5" text-anchor="middle" font-size="10.5" fill="#1a9e5c">+18.7</text>
<circle cx="428.4" cy="179.2" r="4" fill="#ffffff" stroke="#1a9e5c" stroke-width="2.4"/>
<text x="428.4" y="196.2" text-anchor="middle" font-size="10.5" fill="#1a9e5c">+30.8</text>
<circle cx="516.0" cy="246.0" r="4" fill="#ffffff" stroke="#1a9e5c" stroke-width="2.4"/>
<text x="516.0" y="263.0" text-anchor="middle" font-size="10.5" fill="#1a9e5c">-0.1</text>
<circle cx="603.6" cy="243.9" r="4" fill="#ffffff" stroke="#1a9e5c" stroke-width="2.4"/>
<text x="603.6" y="260.9" text-anchor="middle" font-size="10.5" fill="#1a9e5c">+0.9</text>
<circle cx="691.2" cy="233.7" r="4" fill="#ffffff" stroke="#1a9e5c" stroke-width="2.4"/>
<text x="691.2" y="250.7" text-anchor="middle" font-size="10.5" fill="#1a9e5c">+5.7</text>
<circle cx="778.8" cy="274.7" r="4" fill="#ffffff" stroke="#1a9e5c" stroke-width="2.4"/>
<text x="778.8" y="291.7" text-anchor="middle" font-size="10.5" fill="#1a9e5c">-13.3</text>
<circle cx="866.4" cy="209.8" r="4" fill="#ffffff" stroke="#1a9e5c" stroke-width="2.4"/>
<text x="866.4" y="226.8" text-anchor="middle" font-size="10.5" fill="#1a9e5c">+16.7</text>
<circle cx="954.0" cy="247.6" r="4" fill="#ffffff" stroke="#1a9e5c" stroke-width="2.4"/>
<text x="954.0" y="264.6" text-anchor="middle" font-size="10.5" fill="#1a9e5c">-0.8</text>
<rect x="78" y="426" width="13" height="13" rx="3" fill="#2a78d6"/>
<text x="97" y="437" font-size="12.5" fill="#0b0b0b">PAT ratio</text>
<rect x="171" y="426" width="13" height="13" rx="3" fill="#1a9e5c"/>
<text x="190" y="437" font-size="12.5" fill="#0b0b0b">Operating-profit ratio</text>
</svg>
