<svg xmlns="http://www.w3.org/2000/svg" viewBox="0 0 980 460" width="980" height="460" font-family="Helvetica,Arial,sans-serif">
<rect width="980" height="460" fill="#ffffff"/>
<text x="490" y="26" text-anchor="middle" font-size="17" font-weight="700" fill="#0b0b0b">PTC India (PTC) vs Nifty 50 — yearly change in each ratio</text>
<text x="490" y="44" text-anchor="middle" font-size="12" fill="#52514e">Above 0 the company gained on the index that year; below 0 it lagged</text>
<line x1="78" y1="54.0" x2="954" y2="54.0" stroke="#e4e3df" stroke-width="1"/>
<text x="68" y="58.0" text-anchor="end" font-size="12" fill="#52514e">+199%</text>
<line x1="78" y1="131.5" x2="954" y2="131.5" stroke="#e4e3df" stroke-width="1"/>
<text x="68" y="135.5" text-anchor="end" font-size="12" fill="#52514e">+127%</text>
<line x1="78" y1="209.0" x2="954" y2="209.0" stroke="#e4e3df" stroke-width="1"/>
<text x="68" y="213.0" text-anchor="end" font-size="12" fill="#52514e">+54%</text>
<line x1="78" y1="286.5" x2="954" y2="286.5" stroke="#e4e3df" stroke-width="1"/>
<text x="68" y="290.5" text-anchor="end" font-size="12" fill="#52514e">-18%</text>
<line x1="78" y1="364.0" x2="954" y2="364.0" stroke="#e4e3df" stroke-width="1"/>
<text x="68" y="368.0" text-anchor="end" font-size="12" fill="#52514e">-91%</text>
<line x1="78" y1="267.0" x2="954" y2="267.0" stroke="#9b9a94" stroke-width="1.5" stroke-dasharray="6 4"/>
<line x1="78" y1="364.0" x2="954" y2="364.0" stroke="#52514e" stroke-width="1"/>
<line x1="78.0" y1="364.0" x2="78.0" y2="369.0" stroke="#52514e" stroke-width="1"/>
<text x="78.0" y="384" text-anchor="middle" font-size="12" fill="#52514e">FY2016</text>
<line x1="165.6" y1="364.0" x2="165.6" y2="369.0" stroke="#52514e" stroke-width="1"/>
<text x="165.6" y="384" text-anchor="middle" font-size="12" fill="#52514e">FY2017</text>
<line x1="253.2" y1="364.0" x2="253.2" y2="369.0" stroke="#52514e" stroke-width="1"/>
<text x="253.2" y="384" text-anchor="middle" font-size="12" fill="#52514e">FY2018</text>
<line x1="340.8" y1="364.0" x2="340.8" y2="369.0" stroke="#52514e" stroke-width="1"/>
<text x="340.8" y="384" text-anchor="middle" font-size="12" fill="#52514e">FY2019</text>
<line x1="428.4" y1="364.0" x2="428.4" y2="369.0" stroke="#52514e" stroke-width="1"/>
<text x="428.4" y="384" text-anchor="middle" font-size="12" fill="#52514e">FY2020</text>
<line x1="516.0" y1="364.0" x2="516.0" y2="369.0" stroke="#52514e" stroke-width="1"/>
<text x="516.0" y="384" text-anchor="middle" font-size="12" fill="#52514e">FY2021</text>
<line x1="603.6" y1="364.0" x2="603.6" y2="369.0" stroke="#52514e" stroke-width="1"/>
<text x="603.6" y="384" text-anchor="middle" font-size="12" fill="#52514e">FY2022</text>
<line x1="691.2" y1="364.0" x2="691.2" y2="369.0" stroke="#52514e" stroke-width="1"/>
<text x="691.2" y="384" text-anchor="middle" font-size="12" fill="#52514e">FY2023</text>
<line x1="778.8" y1="364.0" x2="778.8" y2="369.0" stroke="#52514e" stroke-width="1"/>
<text x="778.8" y="384" text-anchor="middle" font-size="12" fill="#52514e">FY2024</text>
<line x1="866.4" y1="364.0" x2="866.4" y2="369.0" stroke="#52514e" stroke-width="1"/>
<text x="866.4" y="384" text-anchor="middle" font-size="12" fill="#52514e">FY2025</text>
<line x1="954.0" y1="364.0" x2="954.0" y2="369.0" stroke="#52514e" stroke-width="1"/>
<text x="954.0" y="384" text-anchor="middle" font-size="12" fill="#52514e">FY2026</text>
<polyline points="78.0,247.6 165.6,248.3 253.2,338.2 340.8,79.8 428.4,283.5 516.0,273.7 603.6,287.6 691.2,289.3 778.8,284.5 866.4,196.5 954.0,305.0" fill="none" stroke="#2a78d6" stroke-width="2.6" stroke-linejoin="round" stroke-linecap="round"/>
<circle cx="78.0" cy="247.6" r="4" fill="#ffffff" stroke="#2a78d6" stroke-width="2.4"/>
<text x="78.0" y="236.6" text-anchor="middle" font-size="10.5" fill="#2a78d6">+18.2</text>
<circle cx="165.6" cy="248.3" r="4" fill="#ffffff" stroke="#2a78d6" stroke-width="2.4"/>
<text x="165.6" y="237.3" text-anchor="middle" font-size="10.5" fill="#2a78d6">+17.5</text>
<circle cx="253.2" cy="338.2" r="4" fill="#ffffff" stroke="#2a78d6" stroke-width="2.4"/>
<text x="253.2" y="327.2" text-anchor="middle" font-size="10.5" fill="#2a78d6">-66.5</text>
<circle cx="340.8" cy="79.8" r="4" fill="#ffffff" stroke="#2a78d6" stroke-width="2.4"/>
<text x="340.8" y="68.8" text-anchor="middle" font-size="10.5" fill="#2a78d6">+175.0</text>
<circle cx="428.4" cy="283.5" r="4" fill="#ffffff" stroke="#2a78d6" stroke-width="2.4"/>
<text x="428.4" y="272.5" text-anchor="middle" font-size="10.5" fill="#2a78d6">-15.4</text>
<circle cx="516.0" cy="273.7" r="4" fill="#ffffff" stroke="#2a78d6" stroke-width="2.4"/>
<text x="516.0" y="262.7" text-anchor="middle" font-size="10.5" fill="#2a78d6">-6.2</text>
<circle cx="603.6" cy="287.6" r="4" fill="#ffffff" stroke="#2a78d6" stroke-width="2.4"/>
<text x="603.6" y="276.6" text-anchor="middle" font-size="10.5" fill="#2a78d6">-19.2</text>
<circle cx="691.2" cy="289.3" r="4" fill="#ffffff" stroke="#2a78d6" stroke-width="2.4"/>
<text x="691.2" y="278.3" text-anchor="middle" font-size="10.5" fill="#2a78d6">-20.8</text>
<circle cx="778.8" cy="284.5" r="4" fill="#ffffff" stroke="#2a78d6" stroke-width="2.4"/>
<text x="778.8" y="273.5" text-anchor="middle" font-size="10.5" fill="#2a78d6">-16.3</text>
<circle cx="866.4" cy="196.5" r="4" fill="#ffffff" stroke="#2a78d6" stroke-width="2.4"/>
<text x="866.4" y="185.5" text-anchor="middle" font-size="10.5" fill="#2a78d6">+65.9</text>
<circle cx="954.0" cy="305.0" r="4" fill="#ffffff" stroke="#2a78d6" stroke-width="2.4"/>
<text x="954.0" y="294.0" text-anchor="middle" font-size="10.5" fill="#2a78d6">-35.4</text>
<polyline points="78.0,260.9 165.6,241.3 253.2,284.7 340.8,229.0 428.4,277.1 516.0,283.9 603.6,300.2 691.2,298.7 778.8,299.5 866.4,266.7 954.0,292.2" fill="none" stroke="#1a9e5c" stroke-width="2.6" stroke-linejoin="round" stroke-linecap="round"/>
<circle cx="78.0" cy="260.9" r="4" fill="#ffffff" stroke="#1a9e5c" stroke-width="2.4"/>
<text x="78.0" y="277.9" text-anchor="middle" font-size="10.5" fill="#1a9e5c">+5.7</text>
<circle cx="165.6" cy="241.3" r="4" fill="#ffffff" stroke="#1a9e5c" stroke-width="2.4"/>
<text x="165.6" y="258.3" text-anchor="middle" font-size="10.5" fill="#1a9e5c">+24.0</text>
<circle cx="253.2" cy="284.7" r="4" fill="#ffffff" stroke="#1a9e5c" stroke-width="2.4"/>
<text x="253.2" y="301.7" text-anchor="middle" font-size="10.5" fill="#1a9e5c">-16.5</text>
<circle cx="340.8" cy="229.0" r="4" fill="#ffffff" stroke="#1a9e5c" stroke-width="2.4"/>
<text x="340.8" y="246.0" text-anchor="middle" font-size="10.5" fill="#1a9e5c">+35.5</text>
<circle cx="428.4" cy="277.1" r="4" fill="#ffffff" stroke="#1a9e5c" stroke-width="2.4"/>
<text x="428.4" y="294.1" text-anchor="middle" font-size="10.5" fill="#1a9e5c">-9.4</text>
<circle cx="516.0" cy="283.9" r="4" fill="#ffffff" stroke="#1a9e5c" stroke-width="2.4"/>
<text x="516.0" y="300.9" text-anchor="middle" font-size="10.5" fill="#1a9e5c">-15.7</text>
<circle cx="603.6" cy="300.2" r="4" fill="#ffffff" stroke="#1a9e5c" stroke-width="2.4"/>
<text x="603.6" y="317.2" text-anchor="middle" font-size="10.5" fill="#1a9e5c">-31.0</text>
<circle cx="691.2" cy="298.7" r="4" fill="#ffffff" stroke="#1a9e5c" stroke-width="2.4"/>
<text x="691.2" y="315.7" text-anchor="middle" font-size="10.5" fill="#1a9e5c">-29.6</text>
<circle cx="778.8" cy="299.5" r="4" fill="#ffffff" stroke="#1a9e5c" stroke-width="2.4"/>
<text x="778.8" y="316.5" text-anchor="middle" font-size="10.5" fill="#1a9e5c">-30.3</text>
<circle cx="866.4" cy="266.7" r="4" fill="#ffffff" stroke="#1a9e5c" stroke-width="2.4"/>
<text x="866.4" y="283.7" text-anchor="middle" font-size="10.5" fill="#1a9e5c">+0.3</text>
<circle cx="954.0" cy="292.2" r="4" fill="#ffffff" stroke="#1a9e5c" stroke-width="2.4"/>
<text x="954.0" y="309.2" text-anchor="middle" font-size="10.5" fill="#1a9e5c">-23.5</text>
<rect x="78" y="426" width="13" height="13" rx="3" fill="#2a78d6"/>
<text x="97" y="437" font-size="12.5" fill="#0b0b0b">PAT ratio</text>
<rect x="171" y="426" width="13" height="13" rx="3" fill="#1a9e5c"/>
<text x="190" y="437" font-size="12.5" fill="#0b0b0b">Operating-profit ratio</text>
</svg>
