<svg xmlns="http://www.w3.org/2000/svg" viewBox="0 0 980 460" width="980" height="460" font-family="Helvetica,Arial,sans-serif">
<rect width="980" height="460" fill="#ffffff"/>
<text x="490" y="26" text-anchor="middle" font-size="17" font-weight="700" fill="#0b0b0b">RBL Bank Ltd. (RBLBANK) vs Nifty 50 — yearly change in each ratio</text>
<text x="490" y="44" text-anchor="middle" font-size="12" fill="#52514e">Above 0 the company gained on the index that year; below 0 it lagged</text>
<line x1="78" y1="54.0" x2="954" y2="54.0" stroke="#e4e3df" stroke-width="1"/>
<text x="68" y="58.0" text-anchor="end" font-size="12" fill="#52514e">+1,210%</text>
<line x1="78" y1="131.5" x2="954" y2="131.5" stroke="#e4e3df" stroke-width="1"/>
<text x="68" y="135.5" text-anchor="end" font-size="12" fill="#52514e">-687%</text>
<line x1="78" y1="209.0" x2="954" y2="209.0" stroke="#e4e3df" stroke-width="1"/>
<text x="68" y="213.0" text-anchor="end" font-size="12" fill="#52514e">-2,585%</text>
<line x1="78" y1="286.5" x2="954" y2="286.5" stroke="#e4e3df" stroke-width="1"/>
<text x="68" y="290.5" text-anchor="end" font-size="12" fill="#52514e">-4,482%</text>
<line x1="78" y1="364.0" x2="954" y2="364.0" stroke="#e4e3df" stroke-width="1"/>
<text x="68" y="368.0" text-anchor="end" font-size="12" fill="#52514e">-6,380%</text>
<line x1="78" y1="103.4" x2="954" y2="103.4" stroke="#9b9a94" stroke-width="1.5" stroke-dasharray="6 4"/>
<line x1="78" y1="364.0" x2="954" y2="364.0" stroke="#52514e" stroke-width="1"/>
<line x1="78.0" y1="364.0" x2="78.0" y2="369.0" stroke="#52514e" stroke-width="1"/>
<text x="78.0" y="384" text-anchor="middle" font-size="12" fill="#52514e">FY2018</text>
<line x1="187.5" y1="364.0" x2="187.5" y2="369.0" stroke="#52514e" stroke-width="1"/>
<text x="187.5" y="384" text-anchor="middle" font-size="12" fill="#52514e">FY2019</text>
<line x1="297.0" y1="364.0" x2="297.0" y2="369.0" stroke="#52514e" stroke-width="1"/>
<text x="297.0" y="384" text-anchor="middle" font-size="12" fill="#52514e">FY2020</text>
<line x1="406.5" y1="364.0" x2="406.5" y2="369.0" stroke="#52514e" stroke-width="1"/>
<text x="406.5" y="384" text-anchor="middle" font-size="12" fill="#52514e">FY2021</text>
<line x1="516.0" y1="364.0" x2="516.0" y2="369.0" stroke="#52514e" stroke-width="1"/>
<text x="516.0" y="384" text-anchor="middle" font-size="12" fill="#52514e">FY2022</text>
<line x1="625.5" y1="364.0" x2="625.5" y2="369.0" stroke="#52514e" stroke-width="1"/>
<text x="625.5" y="384" text-anchor="middle" font-size="12" fill="#52514e">FY2023</text>
<line x1="735.0" y1="364.0" x2="735.0" y2="369.0" stroke="#52514e" stroke-width="1"/>
<text x="735.0" y="384" text-anchor="middle" font-size="12" fill="#52514e">FY2024</text>
<line x1="844.5" y1="364.0" x2="844.5" y2="369.0" stroke="#52514e" stroke-width="1"/>
<text x="844.5" y="384" text-anchor="middle" font-size="12" fill="#52514e">FY2025</text>
<line x1="954.0" y1="364.0" x2="954.0" y2="369.0" stroke="#52514e" stroke-width="1"/>
<text x="954.0" y="384" text-anchor="middle" font-size="12" fill="#52514e">FY2026</text>
<polyline points="78.0,104.1 187.5,102.2 297.0,106.6 406.5,103.3 516.0,105.3 625.5,103.3 735.0,102.0 844.5,104.8 954.0,100.6" fill="none" stroke="#2a78d6" stroke-width="2.6" stroke-linejoin="round" stroke-linecap="round"/>
<circle cx="78.0" cy="104.1" r="4" fill="#ffffff" stroke="#2a78d6" stroke-width="2.4"/>
<text x="78.0" y="93.1" text-anchor="middle" font-size="10.5" fill="#2a78d6">-15.9</text>
<circle cx="187.5" cy="102.2" r="4" fill="#ffffff" stroke="#2a78d6" stroke-width="2.4"/>
<text x="187.5" y="91.2" text-anchor="middle" font-size="10.5" fill="#2a78d6">+30.4</text>
<circle cx="297.0" cy="106.6" r="4" fill="#ffffff" stroke="#2a78d6" stroke-width="2.4"/>
<text x="297.0" y="95.6" text-anchor="middle" font-size="10.5" fill="#2a78d6">-76.4</text>
<circle cx="406.5" cy="103.3" r="4" fill="#ffffff" stroke="#2a78d6" stroke-width="2.4"/>
<text x="406.5" y="92.3" text-anchor="middle" font-size="10.5" fill="#2a78d6">+3.2</text>
<circle cx="516.0" cy="105.3" r="4" fill="#ffffff" stroke="#2a78d6" stroke-width="2.4"/>
<text x="516.0" y="94.3" text-anchor="middle" font-size="10.5" fill="#2a78d6">-46.3</text>
<circle cx="625.5" cy="103.3" r="4" fill="#ffffff" stroke="#2a78d6" stroke-width="2.4"/>
<text x="625.5" y="92.3" text-anchor="middle" font-size="10.5" fill="#2a78d6">+2.6</text>
<circle cx="735.0" cy="102.0" r="4" fill="#ffffff" stroke="#2a78d6" stroke-width="2.4"/>
<text x="735.0" y="91.0" text-anchor="middle" font-size="10.5" fill="#2a78d6">+36.1</text>
<circle cx="844.5" cy="104.8" r="4" fill="#ffffff" stroke="#2a78d6" stroke-width="2.4"/>
<text x="844.5" y="93.8" text-anchor="middle" font-size="10.5" fill="#2a78d6">-32.9</text>
<circle cx="954.0" cy="100.6" r="4" fill="#ffffff" stroke="#2a78d6" stroke-width="2.4"/>
<text x="954.0" y="89.6" text-anchor="middle" font-size="10.5" fill="#2a78d6">+69.3</text>
<polyline points="78.0,101.6 187.5,102.4 297.0,105.1 406.5,103.9 516.0,108.4 625.5,79.8 735.0,103.1 844.5,105.4 954.0,103.1" fill="none" stroke="#1a9e5c" stroke-width="2.6" stroke-linejoin="round" stroke-linecap="round"/>
<circle cx="78.0" cy="101.6" r="4" fill="#ffffff" stroke="#1a9e5c" stroke-width="2.4"/>
<text x="78.0" y="118.6" text-anchor="middle" font-size="10.5" fill="#1a9e5c">+45.6</text>
<circle cx="187.5" cy="102.4" r="4" fill="#ffffff" stroke="#1a9e5c" stroke-width="2.4"/>
<text x="187.5" y="119.4" text-anchor="middle" font-size="10.5" fill="#1a9e5c">+26.0</text>
<circle cx="297.0" cy="105.1" r="4" fill="#ffffff" stroke="#1a9e5c" stroke-width="2.4"/>
<text x="297.0" y="122.1" text-anchor="middle" font-size="10.5" fill="#1a9e5c">-40.7</text>
<circle cx="406.5" cy="103.9" r="4" fill="#ffffff" stroke="#1a9e5c" stroke-width="2.4"/>
<text x="406.5" y="120.9" text-anchor="middle" font-size="10.5" fill="#1a9e5c">-12.0</text>
<circle cx="516.0" cy="108.4" r="4" fill="#ffffff" stroke="#1a9e5c" stroke-width="2.4"/>
<text x="516.0" y="125.4" text-anchor="middle" font-size="10.5" fill="#1a9e5c">-121.0</text>
<circle cx="625.5" cy="79.8" r="4" fill="#ffffff" stroke="#1a9e5c" stroke-width="2.4"/>
<text x="625.5" y="96.8" text-anchor="middle" font-size="10.5" fill="#1a9e5c">+577.9</text>
<circle cx="735.0" cy="103.1" r="4" fill="#ffffff" stroke="#1a9e5c" stroke-width="2.4"/>
<text x="735.0" y="120.1" text-anchor="middle" font-size="10.5" fill="#1a9e5c">+9.0</text>
<circle cx="844.5" cy="105.4" r="4" fill="#ffffff" stroke="#1a9e5c" stroke-width="2.4"/>
<text x="844.5" y="122.4" text-anchor="middle" font-size="10.5" fill="#1a9e5c">-48.4</text>
<circle cx="954.0" cy="103.1" r="4" fill="#ffffff" stroke="#1a9e5c" stroke-width="2.4"/>
<text x="954.0" y="120.1" text-anchor="middle" font-size="10.5" fill="#1a9e5c">+7.8</text>
<polyline points="78.0,101.4 187.5,108.6 297.0,338.2 406.5,102.9 516.0,106.6 625.5,100.9 735.0,104.3 844.5,106.8 954.0,103.6" fill="none" stroke="#e07b00" stroke-width="2.6" stroke-linejoin="round" stroke-linecap="round"/>
<circle cx="78.0" cy="101.4" r="4" fill="#ffffff" stroke="#e07b00" stroke-width="2.4"/>
<text x="78.0" y="90.4" text-anchor="middle" font-size="10.5" fill="#e07b00">+49.6</text>
<circle cx="187.5" cy="108.6" r="4" fill="#ffffff" stroke="#e07b00" stroke-width="2.4"/>
<text x="187.5" y="97.6" text-anchor="middle" font-size="10.5" fill="#e07b00">-126.8</text>
<circle cx="297.0" cy="338.2" r="4" fill="#ffffff" stroke="#e07b00" stroke-width="2.4"/>
<text x="297.0" y="327.2" text-anchor="middle" font-size="10.5" fill="#e07b00">-5747.3</text>
<circle cx="406.5" cy="102.9" r="4" fill="#ffffff" stroke="#e07b00" stroke-width="2.4"/>
<text x="406.5" y="91.9" text-anchor="middle" font-size="10.5" fill="#e07b00">+12.3</text>
<circle cx="516.0" cy="106.6" r="4" fill="#ffffff" stroke="#e07b00" stroke-width="2.4"/>
<text x="516.0" y="95.6" text-anchor="middle" font-size="10.5" fill="#e07b00">-77.8</text>
<circle cx="625.5" cy="100.9" r="4" fill="#ffffff" stroke="#e07b00" stroke-width="2.4"/>
<text x="625.5" y="89.9" text-anchor="middle" font-size="10.5" fill="#e07b00">+63.0</text>
<circle cx="735.0" cy="104.3" r="4" fill="#ffffff" stroke="#e07b00" stroke-width="2.4"/>
<text x="735.0" y="93.3" text-anchor="middle" font-size="10.5" fill="#e07b00">-21.5</text>
<circle cx="844.5" cy="106.8" r="4" fill="#ffffff" stroke="#e07b00" stroke-width="2.4"/>
<text x="844.5" y="95.8" text-anchor="middle" font-size="10.5" fill="#e07b00">-81.9</text>
<circle cx="954.0" cy="103.6" r="4" fill="#ffffff" stroke="#e07b00" stroke-width="2.4"/>
<text x="954.0" y="92.6" text-anchor="middle" font-size="10.5" fill="#e07b00">-4.5</text>
<rect x="78" y="426" width="13" height="13" rx="3" fill="#2a78d6"/>
<text x="97" y="437" font-size="12.5" fill="#0b0b0b">Price ratio</text>
<rect x="186" y="426" width="13" height="13" rx="3" fill="#1a9e5c"/>
<text x="205" y="437" font-size="12.5" fill="#0b0b0b">PAT ratio</text>
<rect x="279" y="426" width="13" height="13" rx="3" fill="#e07b00"/>
<text x="298" y="437" font-size="12.5" fill="#0b0b0b">Operating-profit ratio</text>
</svg>
