<svg xmlns="http://www.w3.org/2000/svg" viewBox="0 0 980 460" width="980" height="460" font-family="Helvetica,Arial,sans-serif">
<rect width="980" height="460" fill="#ffffff"/>
<text x="490" y="26" text-anchor="middle" font-size="17" font-weight="700" fill="#0b0b0b">Refex Industries (REFEX) vs Nifty 50 — yearly change in each ratio</text>
<text x="490" y="44" text-anchor="middle" font-size="12" fill="#52514e">Above 0 the company gained on the index that year; below 0 it lagged</text>
<line x1="78" y1="54.0" x2="954" y2="54.0" stroke="#e4e3df" stroke-width="1"/>
<text x="68" y="58.0" text-anchor="end" font-size="12" fill="#52514e">+3,159%</text>
<line x1="78" y1="131.5" x2="954" y2="131.5" stroke="#e4e3df" stroke-width="1"/>
<text x="68" y="135.5" text-anchor="end" font-size="12" fill="#52514e">+2,270%</text>
<line x1="78" y1="209.0" x2="954" y2="209.0" stroke="#e4e3df" stroke-width="1"/>
<text x="68" y="213.0" text-anchor="end" font-size="12" fill="#52514e">+1,382%</text>
<line x1="78" y1="286.5" x2="954" y2="286.5" stroke="#e4e3df" stroke-width="1"/>
<text x="68" y="290.5" text-anchor="end" font-size="12" fill="#52514e">+493%</text>
<line x1="78" y1="364.0" x2="954" y2="364.0" stroke="#e4e3df" stroke-width="1"/>
<text x="68" y="368.0" text-anchor="end" font-size="12" fill="#52514e">-396%</text>
<line x1="78" y1="329.4" x2="954" y2="329.4" stroke="#9b9a94" stroke-width="1.5" stroke-dasharray="6 4"/>
<line x1="78" y1="364.0" x2="954" y2="364.0" stroke="#52514e" stroke-width="1"/>
<line x1="78.0" y1="364.0" x2="78.0" y2="369.0" stroke="#52514e" stroke-width="1"/>
<text x="78.0" y="384" text-anchor="middle" font-size="12" fill="#52514e">FY2016</text>
<line x1="187.5" y1="364.0" x2="187.5" y2="369.0" stroke="#52514e" stroke-width="1"/>
<text x="187.5" y="384" text-anchor="middle" font-size="12" fill="#52514e">FY2017</text>
<line x1="297.0" y1="364.0" x2="297.0" y2="369.0" stroke="#52514e" stroke-width="1"/>
<text x="297.0" y="384" text-anchor="middle" font-size="12" fill="#52514e">FY2018</text>
<line x1="406.5" y1="364.0" x2="406.5" y2="369.0" stroke="#52514e" stroke-width="1"/>
<text x="406.5" y="384" text-anchor="middle" font-size="12" fill="#52514e">FY2019</text>
<line x1="516.0" y1="364.0" x2="516.0" y2="369.0" stroke="#52514e" stroke-width="1"/>
<text x="516.0" y="384" text-anchor="middle" font-size="12" fill="#52514e">FY2020</text>
<line x1="625.5" y1="364.0" x2="625.5" y2="369.0" stroke="#52514e" stroke-width="1"/>
<text x="625.5" y="384" text-anchor="middle" font-size="12" fill="#52514e">FY2021</text>
<line x1="735.0" y1="364.0" x2="735.0" y2="369.0" stroke="#52514e" stroke-width="1"/>
<text x="735.0" y="384" text-anchor="middle" font-size="12" fill="#52514e">FY2024</text>
<line x1="844.5" y1="364.0" x2="844.5" y2="369.0" stroke="#52514e" stroke-width="1"/>
<text x="844.5" y="384" text-anchor="middle" font-size="12" fill="#52514e">FY2025</text>
<line x1="954.0" y1="364.0" x2="954.0" y2="369.0" stroke="#52514e" stroke-width="1"/>
<text x="954.0" y="384" text-anchor="middle" font-size="12" fill="#52514e">FY2026</text>
<polyline points="78.0,324.4 187.5,338.2 406.5,79.8 516.0,329.0 625.5,329.2 735.0,332.6 844.5,324.7 954.0,328.3" fill="none" stroke="#2a78d6" stroke-width="2.6" stroke-linejoin="round" stroke-linecap="round"/>
<circle cx="78.0" cy="324.4" r="4" fill="#ffffff" stroke="#2a78d6" stroke-width="2.4"/>
<text x="78.0" y="313.4" text-anchor="middle" font-size="10.5" fill="#2a78d6">+58.1</text>
<circle cx="187.5" cy="338.2" r="4" fill="#ffffff" stroke="#2a78d6" stroke-width="2.4"/>
<text x="187.5" y="327.2" text-anchor="middle" font-size="10.5" fill="#2a78d6">-100.0</text>
<circle cx="406.5" cy="79.8" r="4" fill="#ffffff" stroke="#2a78d6" stroke-width="2.4"/>
<text x="406.5" y="68.8" text-anchor="middle" font-size="10.5" fill="#2a78d6">+2863.1</text>
<circle cx="516.0" cy="329.0" r="4" fill="#ffffff" stroke="#2a78d6" stroke-width="2.4"/>
<text x="516.0" y="318.0" text-anchor="middle" font-size="10.5" fill="#2a78d6">+5.3</text>
<circle cx="625.5" cy="329.2" r="4" fill="#ffffff" stroke="#2a78d6" stroke-width="2.4"/>
<text x="625.5" y="318.2" text-anchor="middle" font-size="10.5" fill="#2a78d6">+3.3</text>
<circle cx="735.0" cy="332.6" r="4" fill="#ffffff" stroke="#2a78d6" stroke-width="2.4"/>
<text x="735.0" y="321.6" text-anchor="middle" font-size="10.5" fill="#2a78d6">-36.2</text>
<circle cx="844.5" cy="324.7" r="4" fill="#ffffff" stroke="#2a78d6" stroke-width="2.4"/>
<text x="844.5" y="313.7" text-anchor="middle" font-size="10.5" fill="#2a78d6">+53.9</text>
<circle cx="954.0" cy="328.3" r="4" fill="#ffffff" stroke="#2a78d6" stroke-width="2.4"/>
<text x="954.0" y="317.3" text-anchor="middle" font-size="10.5" fill="#2a78d6">+13.5</text>
<polyline points="78.0,334.0 187.5,332.4 297.0,329.4 406.5,240.5 516.0,322.8 625.5,327.6 735.0,331.7 844.5,326.6 954.0,323.1" fill="none" stroke="#1a9e5c" stroke-width="2.6" stroke-linejoin="round" stroke-linecap="round"/>
<circle cx="78.0" cy="334.0" r="4" fill="#ffffff" stroke="#1a9e5c" stroke-width="2.4"/>
<text x="78.0" y="351.0" text-anchor="middle" font-size="10.5" fill="#1a9e5c">-52.5</text>
<circle cx="187.5" cy="332.4" r="4" fill="#ffffff" stroke="#1a9e5c" stroke-width="2.4"/>
<text x="187.5" y="349.4" text-anchor="middle" font-size="10.5" fill="#1a9e5c">-33.9</text>
<circle cx="297.0" cy="329.4" r="4" fill="#ffffff" stroke="#1a9e5c" stroke-width="2.4"/>
<text x="297.0" y="346.4" text-anchor="middle" font-size="10.5" fill="#1a9e5c">+0.8</text>
<circle cx="406.5" cy="240.5" r="4" fill="#ffffff" stroke="#1a9e5c" stroke-width="2.4"/>
<text x="406.5" y="257.5" text-anchor="middle" font-size="10.5" fill="#1a9e5c">+1020.6</text>
<circle cx="516.0" cy="322.8" r="4" fill="#ffffff" stroke="#1a9e5c" stroke-width="2.4"/>
<text x="516.0" y="339.8" text-anchor="middle" font-size="10.5" fill="#1a9e5c">+76.6</text>
<circle cx="625.5" cy="327.6" r="4" fill="#ffffff" stroke="#1a9e5c" stroke-width="2.4"/>
<text x="625.5" y="344.6" text-anchor="middle" font-size="10.5" fill="#1a9e5c">+20.8</text>
<circle cx="735.0" cy="331.7" r="4" fill="#ffffff" stroke="#1a9e5c" stroke-width="2.4"/>
<text x="735.0" y="348.7" text-anchor="middle" font-size="10.5" fill="#1a9e5c">-26.4</text>
<circle cx="844.5" cy="326.6" r="4" fill="#ffffff" stroke="#1a9e5c" stroke-width="2.4"/>
<text x="844.5" y="343.6" text-anchor="middle" font-size="10.5" fill="#1a9e5c">+33.2</text>
<circle cx="954.0" cy="323.1" r="4" fill="#ffffff" stroke="#1a9e5c" stroke-width="2.4"/>
<text x="954.0" y="340.1" text-anchor="middle" font-size="10.5" fill="#1a9e5c">+73.1</text>
<rect x="78" y="426" width="13" height="13" rx="3" fill="#2a78d6"/>
<text x="97" y="437" font-size="12.5" fill="#0b0b0b">PAT ratio</text>
<rect x="171" y="426" width="13" height="13" rx="3" fill="#1a9e5c"/>
<text x="190" y="437" font-size="12.5" fill="#0b0b0b">Operating-profit ratio</text>
</svg>
