<svg xmlns="http://www.w3.org/2000/svg" viewBox="0 0 980 460" width="980" height="460" font-family="Helvetica,Arial,sans-serif">
<rect width="980" height="460" fill="#ffffff"/>
<text x="490" y="26" text-anchor="middle" font-size="17" font-weight="700" fill="#0b0b0b">Supriya Lifescience (SUPRIYA) vs Nifty 50 — yearly change in each ratio</text>
<text x="490" y="44" text-anchor="middle" font-size="12" fill="#52514e">Above 0 the company gained on the index that year; below 0 it lagged</text>
<line x1="78" y1="54.0" x2="954" y2="54.0" stroke="#e4e3df" stroke-width="1"/>
<text x="68" y="58.0" text-anchor="end" font-size="12" fill="#52514e">+336%</text>
<line x1="78" y1="131.5" x2="954" y2="131.5" stroke="#e4e3df" stroke-width="1"/>
<text x="68" y="135.5" text-anchor="end" font-size="12" fill="#52514e">+231%</text>
<line x1="78" y1="209.0" x2="954" y2="209.0" stroke="#e4e3df" stroke-width="1"/>
<text x="68" y="213.0" text-anchor="end" font-size="12" fill="#52514e">+125%</text>
<line x1="78" y1="286.5" x2="954" y2="286.5" stroke="#e4e3df" stroke-width="1"/>
<text x="68" y="290.5" text-anchor="end" font-size="12" fill="#52514e">+20%</text>
<line x1="78" y1="364.0" x2="954" y2="364.0" stroke="#e4e3df" stroke-width="1"/>
<text x="68" y="368.0" text-anchor="end" font-size="12" fill="#52514e">-86%</text>
<line x1="78" y1="301.1" x2="954" y2="301.1" stroke="#9b9a94" stroke-width="1.5" stroke-dasharray="6 4"/>
<line x1="78" y1="364.0" x2="954" y2="364.0" stroke="#52514e" stroke-width="1"/>
<line x1="78.0" y1="364.0" x2="78.0" y2="369.0" stroke="#52514e" stroke-width="1"/>
<text x="78.0" y="384" text-anchor="middle" font-size="12" fill="#52514e">FY2018</text>
<line x1="187.5" y1="364.0" x2="187.5" y2="369.0" stroke="#52514e" stroke-width="1"/>
<text x="187.5" y="384" text-anchor="middle" font-size="12" fill="#52514e">FY2019</text>
<line x1="297.0" y1="364.0" x2="297.0" y2="369.0" stroke="#52514e" stroke-width="1"/>
<text x="297.0" y="384" text-anchor="middle" font-size="12" fill="#52514e">FY2020</text>
<line x1="406.5" y1="364.0" x2="406.5" y2="369.0" stroke="#52514e" stroke-width="1"/>
<text x="406.5" y="384" text-anchor="middle" font-size="12" fill="#52514e">FY2021</text>
<line x1="516.0" y1="364.0" x2="516.0" y2="369.0" stroke="#52514e" stroke-width="1"/>
<text x="516.0" y="384" text-anchor="middle" font-size="12" fill="#52514e">FY2022</text>
<line x1="625.5" y1="364.0" x2="625.5" y2="369.0" stroke="#52514e" stroke-width="1"/>
<text x="625.5" y="384" text-anchor="middle" font-size="12" fill="#52514e">FY2023</text>
<line x1="735.0" y1="364.0" x2="735.0" y2="369.0" stroke="#52514e" stroke-width="1"/>
<text x="735.0" y="384" text-anchor="middle" font-size="12" fill="#52514e">FY2024</text>
<line x1="844.5" y1="364.0" x2="844.5" y2="369.0" stroke="#52514e" stroke-width="1"/>
<text x="844.5" y="384" text-anchor="middle" font-size="12" fill="#52514e">FY2025</text>
<line x1="954.0" y1="364.0" x2="954.0" y2="369.0" stroke="#52514e" stroke-width="1"/>
<text x="954.0" y="384" text-anchor="middle" font-size="12" fill="#52514e">FY2026</text>
<polyline points="78.0,261.3 187.5,79.8 297.0,234.1 406.5,270.8 516.0,314.2 625.5,337.0 735.0,297.2 844.5,269.4 954.0,302.7" fill="none" stroke="#2a78d6" stroke-width="2.6" stroke-linejoin="round" stroke-linecap="round"/>
<circle cx="78.0" cy="261.3" r="4" fill="#ffffff" stroke="#2a78d6" stroke-width="2.4"/>
<text x="78.0" y="250.3" text-anchor="middle" font-size="10.5" fill="#2a78d6">+54.2</text>
<circle cx="187.5" cy="79.8" r="4" fill="#ffffff" stroke="#2a78d6" stroke-width="2.4"/>
<text x="187.5" y="68.8" text-anchor="middle" font-size="10.5" fill="#2a78d6">+301.3</text>
<circle cx="297.0" cy="234.1" r="4" fill="#ffffff" stroke="#2a78d6" stroke-width="2.4"/>
<text x="297.0" y="223.1" text-anchor="middle" font-size="10.5" fill="#2a78d6">+91.2</text>
<circle cx="406.5" cy="270.8" r="4" fill="#ffffff" stroke="#2a78d6" stroke-width="2.4"/>
<text x="406.5" y="259.8" text-anchor="middle" font-size="10.5" fill="#2a78d6">+41.3</text>
<circle cx="516.0" cy="314.2" r="4" fill="#ffffff" stroke="#2a78d6" stroke-width="2.4"/>
<text x="516.0" y="303.2" text-anchor="middle" font-size="10.5" fill="#2a78d6">-17.9</text>
<circle cx="625.5" cy="337.0" r="4" fill="#ffffff" stroke="#2a78d6" stroke-width="2.4"/>
<text x="625.5" y="326.0" text-anchor="middle" font-size="10.5" fill="#2a78d6">-48.9</text>
<circle cx="735.0" cy="297.2" r="4" fill="#ffffff" stroke="#2a78d6" stroke-width="2.4"/>
<text x="735.0" y="286.2" text-anchor="middle" font-size="10.5" fill="#2a78d6">+5.3</text>
<circle cx="844.5" cy="269.4" r="4" fill="#ffffff" stroke="#2a78d6" stroke-width="2.4"/>
<text x="844.5" y="258.4" text-anchor="middle" font-size="10.5" fill="#2a78d6">+43.2</text>
<circle cx="954.0" cy="302.7" r="4" fill="#ffffff" stroke="#2a78d6" stroke-width="2.4"/>
<text x="954.0" y="291.7" text-anchor="middle" font-size="10.5" fill="#2a78d6">-2.3</text>
<polyline points="78.0,278.7 187.5,200.8 297.0,267.1 406.5,257.1 516.0,307.1 625.5,338.2 735.0,286.1 844.5,271.7 954.0,293.0" fill="none" stroke="#1a9e5c" stroke-width="2.6" stroke-linejoin="round" stroke-linecap="round"/>
<circle cx="78.0" cy="278.7" r="4" fill="#ffffff" stroke="#1a9e5c" stroke-width="2.4"/>
<text x="78.0" y="295.7" text-anchor="middle" font-size="10.5" fill="#1a9e5c">+30.4</text>
<circle cx="187.5" cy="200.8" r="4" fill="#ffffff" stroke="#1a9e5c" stroke-width="2.4"/>
<text x="187.5" y="217.8" text-anchor="middle" font-size="10.5" fill="#1a9e5c">+136.5</text>
<circle cx="297.0" cy="267.1" r="4" fill="#ffffff" stroke="#1a9e5c" stroke-width="2.4"/>
<text x="297.0" y="284.1" text-anchor="middle" font-size="10.5" fill="#1a9e5c">+46.2</text>
<circle cx="406.5" cy="257.1" r="4" fill="#ffffff" stroke="#1a9e5c" stroke-width="2.4"/>
<text x="406.5" y="274.1" text-anchor="middle" font-size="10.5" fill="#1a9e5c">+59.9</text>
<circle cx="516.0" cy="307.1" r="4" fill="#ffffff" stroke="#1a9e5c" stroke-width="2.4"/>
<text x="516.0" y="324.1" text-anchor="middle" font-size="10.5" fill="#1a9e5c">-8.2</text>
<circle cx="625.5" cy="338.2" r="4" fill="#ffffff" stroke="#1a9e5c" stroke-width="2.4"/>
<text x="625.5" y="355.2" text-anchor="middle" font-size="10.5" fill="#1a9e5c">-50.5</text>
<circle cx="735.0" cy="286.1" r="4" fill="#ffffff" stroke="#1a9e5c" stroke-width="2.4"/>
<text x="735.0" y="303.1" text-anchor="middle" font-size="10.5" fill="#1a9e5c">+20.4</text>
<circle cx="844.5" cy="271.7" r="4" fill="#ffffff" stroke="#1a9e5c" stroke-width="2.4"/>
<text x="844.5" y="288.7" text-anchor="middle" font-size="10.5" fill="#1a9e5c">+40.0</text>
<circle cx="954.0" cy="293.0" r="4" fill="#ffffff" stroke="#1a9e5c" stroke-width="2.4"/>
<text x="954.0" y="310.0" text-anchor="middle" font-size="10.5" fill="#1a9e5c">+10.9</text>
<rect x="78" y="426" width="13" height="13" rx="3" fill="#2a78d6"/>
<text x="97" y="437" font-size="12.5" fill="#0b0b0b">PAT ratio</text>
<rect x="171" y="426" width="13" height="13" rx="3" fill="#1a9e5c"/>
<text x="190" y="437" font-size="12.5" fill="#0b0b0b">Operating-profit ratio</text>
</svg>
