<svg xmlns="http://www.w3.org/2000/svg" viewBox="0 0 980 460" width="980" height="460" font-family="Helvetica,Arial,sans-serif">
<rect width="980" height="460" fill="#ffffff"/>
<text x="490" y="26" text-anchor="middle" font-size="17" font-weight="700" fill="#0b0b0b">Welspun Corp Ltd. (WELCORP) vs Nifty 50 — yearly change in each ratio</text>
<text x="490" y="44" text-anchor="middle" font-size="12" fill="#52514e">Above 0 the company gained on the index that year; below 0 it lagged</text>
<line x1="78" y1="54.0" x2="954" y2="54.0" stroke="#e4e3df" stroke-width="1"/>
<text x="68" y="58.0" text-anchor="end" font-size="12" fill="#52514e">+3,461%</text>
<line x1="78" y1="131.5" x2="954" y2="131.5" stroke="#e4e3df" stroke-width="1"/>
<text x="68" y="135.5" text-anchor="end" font-size="12" fill="#52514e">+2,486%</text>
<line x1="78" y1="209.0" x2="954" y2="209.0" stroke="#e4e3df" stroke-width="1"/>
<text x="68" y="213.0" text-anchor="end" font-size="12" fill="#52514e">+1,511%</text>
<line x1="78" y1="286.5" x2="954" y2="286.5" stroke="#e4e3df" stroke-width="1"/>
<text x="68" y="290.5" text-anchor="end" font-size="12" fill="#52514e">+537%</text>
<line x1="78" y1="364.0" x2="954" y2="364.0" stroke="#e4e3df" stroke-width="1"/>
<text x="68" y="368.0" text-anchor="end" font-size="12" fill="#52514e">-438%</text>
<line x1="78" y1="329.2" x2="954" y2="329.2" stroke="#9b9a94" stroke-width="1.5" stroke-dasharray="6 4"/>
<line x1="78" y1="364.0" x2="954" y2="364.0" stroke="#52514e" stroke-width="1"/>
<line x1="78.0" y1="364.0" x2="78.0" y2="369.0" stroke="#52514e" stroke-width="1"/>
<text x="78.0" y="384" text-anchor="middle" font-size="12" fill="#52514e">FY2016</text>
<line x1="165.6" y1="364.0" x2="165.6" y2="369.0" stroke="#52514e" stroke-width="1"/>
<text x="165.6" y="384" text-anchor="middle" font-size="12" fill="#52514e">FY2017</text>
<line x1="253.2" y1="364.0" x2="253.2" y2="369.0" stroke="#52514e" stroke-width="1"/>
<text x="253.2" y="384" text-anchor="middle" font-size="12" fill="#52514e">FY2018</text>
<line x1="340.8" y1="364.0" x2="340.8" y2="369.0" stroke="#52514e" stroke-width="1"/>
<text x="340.8" y="384" text-anchor="middle" font-size="12" fill="#52514e">FY2019</text>
<line x1="428.4" y1="364.0" x2="428.4" y2="369.0" stroke="#52514e" stroke-width="1"/>
<text x="428.4" y="384" text-anchor="middle" font-size="12" fill="#52514e">FY2020</text>
<line x1="516.0" y1="364.0" x2="516.0" y2="369.0" stroke="#52514e" stroke-width="1"/>
<text x="516.0" y="384" text-anchor="middle" font-size="12" fill="#52514e">FY2021</text>
<line x1="603.6" y1="364.0" x2="603.6" y2="369.0" stroke="#52514e" stroke-width="1"/>
<text x="603.6" y="384" text-anchor="middle" font-size="12" fill="#52514e">FY2022</text>
<line x1="691.2" y1="364.0" x2="691.2" y2="369.0" stroke="#52514e" stroke-width="1"/>
<text x="691.2" y="384" text-anchor="middle" font-size="12" fill="#52514e">FY2023</text>
<line x1="778.8" y1="364.0" x2="778.8" y2="369.0" stroke="#52514e" stroke-width="1"/>
<text x="778.8" y="384" text-anchor="middle" font-size="12" fill="#52514e">FY2024</text>
<line x1="866.4" y1="364.0" x2="866.4" y2="369.0" stroke="#52514e" stroke-width="1"/>
<text x="866.4" y="384" text-anchor="middle" font-size="12" fill="#52514e">FY2025</text>
<line x1="954.0" y1="364.0" x2="954.0" y2="369.0" stroke="#52514e" stroke-width="1"/>
<text x="954.0" y="384" text-anchor="middle" font-size="12" fill="#52514e">FY2026</text>
<polyline points="78.0,321.9 165.6,331.5 253.2,325.9 340.8,330.0 428.4,332.6 516.0,325.2 603.6,328.9 691.2,328.1 778.8,320.8 866.4,324.6 954.0,329.6" fill="none" stroke="#2a78d6" stroke-width="2.6" stroke-linejoin="round" stroke-linecap="round"/>
<circle cx="78.0" cy="321.9" r="4" fill="#ffffff" stroke="#2a78d6" stroke-width="2.4"/>
<text x="78.0" y="310.9" text-anchor="middle" font-size="10.5" fill="#2a78d6">+91.0</text>
<circle cx="165.6" cy="331.5" r="4" fill="#ffffff" stroke="#2a78d6" stroke-width="2.4"/>
<text x="165.6" y="320.5" text-anchor="middle" font-size="10.5" fill="#2a78d6">-29.4</text>
<circle cx="253.2" cy="325.9" r="4" fill="#ffffff" stroke="#2a78d6" stroke-width="2.4"/>
<text x="253.2" y="314.9" text-anchor="middle" font-size="10.5" fill="#2a78d6">+41.5</text>
<circle cx="340.8" cy="330.0" r="4" fill="#ffffff" stroke="#2a78d6" stroke-width="2.4"/>
<text x="340.8" y="319.0" text-anchor="middle" font-size="10.5" fill="#2a78d6">-10.8</text>
<circle cx="428.4" cy="332.6" r="4" fill="#ffffff" stroke="#2a78d6" stroke-width="2.4"/>
<text x="428.4" y="321.6" text-anchor="middle" font-size="10.5" fill="#2a78d6">-43.9</text>
<circle cx="516.0" cy="325.2" r="4" fill="#ffffff" stroke="#2a78d6" stroke-width="2.4"/>
<text x="516.0" y="314.2" text-anchor="middle" font-size="10.5" fill="#2a78d6">+50.3</text>
<circle cx="603.6" cy="328.9" r="4" fill="#ffffff" stroke="#2a78d6" stroke-width="2.4"/>
<text x="603.6" y="317.9" text-anchor="middle" font-size="10.5" fill="#2a78d6">+3.5</text>
<circle cx="691.2" cy="328.1" r="4" fill="#ffffff" stroke="#2a78d6" stroke-width="2.4"/>
<text x="691.2" y="317.1" text-anchor="middle" font-size="10.5" fill="#2a78d6">+13.4</text>
<circle cx="778.8" cy="320.8" r="4" fill="#ffffff" stroke="#2a78d6" stroke-width="2.4"/>
<text x="778.8" y="309.8" text-anchor="middle" font-size="10.5" fill="#2a78d6">+105.4</text>
<circle cx="866.4" cy="324.6" r="4" fill="#ffffff" stroke="#2a78d6" stroke-width="2.4"/>
<text x="866.4" y="313.6" text-anchor="middle" font-size="10.5" fill="#2a78d6">+56.8</text>
<circle cx="954.0" cy="329.6" r="4" fill="#ffffff" stroke="#2a78d6" stroke-width="2.4"/>
<text x="954.0" y="318.6" text-anchor="middle" font-size="10.5" fill="#2a78d6">-5.3</text>
<polyline points="78.0,330.8 165.6,336.7 253.2,212.1 340.8,338.2 428.4,79.8 516.0,328.7 603.6,334.2 691.2,334.0 778.8,301.0 866.4,325.0 954.0,331.2" fill="none" stroke="#1a9e5c" stroke-width="2.6" stroke-linejoin="round" stroke-linecap="round"/>
<circle cx="78.0" cy="330.8" r="4" fill="#ffffff" stroke="#1a9e5c" stroke-width="2.4"/>
<text x="78.0" y="347.8" text-anchor="middle" font-size="10.5" fill="#1a9e5c">-20.6</text>
<circle cx="165.6" cy="336.7" r="4" fill="#ffffff" stroke="#1a9e5c" stroke-width="2.4"/>
<text x="165.6" y="353.7" text-anchor="middle" font-size="10.5" fill="#1a9e5c">-94.7</text>
<circle cx="253.2" cy="212.1" r="4" fill="#ffffff" stroke="#1a9e5c" stroke-width="2.4"/>
<text x="253.2" y="229.1" text-anchor="middle" font-size="10.5" fill="#1a9e5c">+1472.8</text>
<circle cx="340.8" cy="338.2" r="4" fill="#ffffff" stroke="#1a9e5c" stroke-width="2.4"/>
<text x="340.8" y="355.2" text-anchor="middle" font-size="10.5" fill="#1a9e5c">-113.3</text>
<circle cx="428.4" cy="79.8" r="4" fill="#ffffff" stroke="#1a9e5c" stroke-width="2.4"/>
<text x="428.4" y="96.8" text-anchor="middle" font-size="10.5" fill="#1a9e5c">+3135.8</text>
<circle cx="516.0" cy="328.7" r="4" fill="#ffffff" stroke="#1a9e5c" stroke-width="2.4"/>
<text x="516.0" y="345.7" text-anchor="middle" font-size="10.5" fill="#1a9e5c">+5.2</text>
<circle cx="603.6" cy="334.2" r="4" fill="#ffffff" stroke="#1a9e5c" stroke-width="2.4"/>
<text x="603.6" y="351.2" text-anchor="middle" font-size="10.5" fill="#1a9e5c">-64.0</text>
<circle cx="691.2" cy="334.0" r="4" fill="#ffffff" stroke="#1a9e5c" stroke-width="2.4"/>
<text x="691.2" y="351.0" text-anchor="middle" font-size="10.5" fill="#1a9e5c">-61.4</text>
<circle cx="778.8" cy="301.0" r="4" fill="#ffffff" stroke="#1a9e5c" stroke-width="2.4"/>
<text x="778.8" y="318.0" text-anchor="middle" font-size="10.5" fill="#1a9e5c">+354.5</text>
<circle cx="866.4" cy="325.0" r="4" fill="#ffffff" stroke="#1a9e5c" stroke-width="2.4"/>
<text x="866.4" y="342.0" text-anchor="middle" font-size="10.5" fill="#1a9e5c">+51.7</text>
<circle cx="954.0" cy="331.2" r="4" fill="#ffffff" stroke="#1a9e5c" stroke-width="2.4"/>
<text x="954.0" y="348.2" text-anchor="middle" font-size="10.5" fill="#1a9e5c">-25.1</text>
<polyline points="78.0,330.1 165.6,331.9 253.2,329.8 340.8,328.4 428.4,322.7 516.0,332.3 603.6,333.6 691.2,330.3 778.8,314.9 866.4,329.0 954.0,326.7" fill="none" stroke="#e07b00" stroke-width="2.6" stroke-linejoin="round" stroke-linecap="round"/>
<circle cx="78.0" cy="330.1" r="4" fill="#ffffff" stroke="#e07b00" stroke-width="2.4"/>
<text x="78.0" y="319.1" text-anchor="middle" font-size="10.5" fill="#e07b00">-12.5</text>
<circle cx="165.6" cy="331.9" r="4" fill="#ffffff" stroke="#e07b00" stroke-width="2.4"/>
<text x="165.6" y="320.9" text-anchor="middle" font-size="10.5" fill="#e07b00">-34.6</text>
<circle cx="253.2" cy="329.8" r="4" fill="#ffffff" stroke="#e07b00" stroke-width="2.4"/>
<text x="253.2" y="318.8" text-anchor="middle" font-size="10.5" fill="#e07b00">-8.2</text>
<circle cx="340.8" cy="328.4" r="4" fill="#ffffff" stroke="#e07b00" stroke-width="2.4"/>
<text x="340.8" y="317.4" text-anchor="middle" font-size="10.5" fill="#e07b00">+9.0</text>
<circle cx="428.4" cy="322.7" r="4" fill="#ffffff" stroke="#e07b00" stroke-width="2.4"/>
<text x="428.4" y="311.7" text-anchor="middle" font-size="10.5" fill="#e07b00">+80.9</text>
<circle cx="516.0" cy="332.3" r="4" fill="#ffffff" stroke="#e07b00" stroke-width="2.4"/>
<text x="516.0" y="321.3" text-anchor="middle" font-size="10.5" fill="#e07b00">-40.0</text>
<circle cx="603.6" cy="333.6" r="4" fill="#ffffff" stroke="#e07b00" stroke-width="2.4"/>
<text x="603.6" y="322.6" text-anchor="middle" font-size="10.5" fill="#e07b00">-55.8</text>
<circle cx="691.2" cy="330.3" r="4" fill="#ffffff" stroke="#e07b00" stroke-width="2.4"/>
<text x="691.2" y="319.3" text-anchor="middle" font-size="10.5" fill="#e07b00">-14.3</text>
<circle cx="778.8" cy="314.9" r="4" fill="#ffffff" stroke="#e07b00" stroke-width="2.4"/>
<text x="778.8" y="303.9" text-anchor="middle" font-size="10.5" fill="#e07b00">+178.9</text>
<circle cx="866.4" cy="329.0" r="4" fill="#ffffff" stroke="#e07b00" stroke-width="2.4"/>
<text x="866.4" y="318.0" text-anchor="middle" font-size="10.5" fill="#e07b00">+1.8</text>
<circle cx="954.0" cy="326.7" r="4" fill="#ffffff" stroke="#e07b00" stroke-width="2.4"/>
<text x="954.0" y="315.7" text-anchor="middle" font-size="10.5" fill="#e07b00">+30.8</text>
<rect x="78" y="426" width="13" height="13" rx="3" fill="#2a78d6"/>
<text x="97" y="437" font-size="12.5" fill="#0b0b0b">Price ratio</text>
<rect x="186" y="426" width="13" height="13" rx="3" fill="#1a9e5c"/>
<text x="205" y="437" font-size="12.5" fill="#0b0b0b">PAT ratio</text>
<rect x="279" y="426" width="13" height="13" rx="3" fill="#e07b00"/>
<text x="298" y="437" font-size="12.5" fill="#0b0b0b">Operating-profit ratio</text>
</svg>
