<svg xmlns="http://www.w3.org/2000/svg" viewBox="0 0 980 460" width="980" height="460" font-family="Helvetica,Arial,sans-serif">
<rect width="980" height="460" fill="#ffffff"/>
<text x="490" y="26" text-anchor="middle" font-size="17" font-weight="700" fill="#0b0b0b">Zydus Wellness Ltd. (ZYDUSWELL) vs Nifty 50 — yearly change in each ratio</text>
<text x="490" y="44" text-anchor="middle" font-size="12" fill="#52514e">Above 0 the company gained on the index that year; below 0 it lagged</text>
<line x1="78" y1="54.0" x2="954" y2="54.0" stroke="#e4e3df" stroke-width="1"/>
<text x="68" y="58.0" text-anchor="end" font-size="12" fill="#52514e">+86%</text>
<line x1="78" y1="131.5" x2="954" y2="131.5" stroke="#e4e3df" stroke-width="1"/>
<text x="68" y="135.5" text-anchor="end" font-size="12" fill="#52514e">+49%</text>
<line x1="78" y1="209.0" x2="954" y2="209.0" stroke="#e4e3df" stroke-width="1"/>
<text x="68" y="213.0" text-anchor="end" font-size="12" fill="#52514e">+12%</text>
<line x1="78" y1="286.5" x2="954" y2="286.5" stroke="#e4e3df" stroke-width="1"/>
<text x="68" y="290.5" text-anchor="end" font-size="12" fill="#52514e">-25%</text>
<line x1="78" y1="364.0" x2="954" y2="364.0" stroke="#e4e3df" stroke-width="1"/>
<text x="68" y="368.0" text-anchor="end" font-size="12" fill="#52514e">-63%</text>
<line x1="78" y1="233.9" x2="954" y2="233.9" stroke="#9b9a94" stroke-width="1.5" stroke-dasharray="6 4"/>
<line x1="78" y1="364.0" x2="954" y2="364.0" stroke="#52514e" stroke-width="1"/>
<line x1="78.0" y1="364.0" x2="78.0" y2="369.0" stroke="#52514e" stroke-width="1"/>
<text x="78.0" y="384" text-anchor="middle" font-size="12" fill="#52514e">FY2016</text>
<line x1="165.6" y1="364.0" x2="165.6" y2="369.0" stroke="#52514e" stroke-width="1"/>
<text x="165.6" y="384" text-anchor="middle" font-size="12" fill="#52514e">FY2017</text>
<line x1="253.2" y1="364.0" x2="253.2" y2="369.0" stroke="#52514e" stroke-width="1"/>
<text x="253.2" y="384" text-anchor="middle" font-size="12" fill="#52514e">FY2018</text>
<line x1="340.8" y1="364.0" x2="340.8" y2="369.0" stroke="#52514e" stroke-width="1"/>
<text x="340.8" y="384" text-anchor="middle" font-size="12" fill="#52514e">FY2019</text>
<line x1="428.4" y1="364.0" x2="428.4" y2="369.0" stroke="#52514e" stroke-width="1"/>
<text x="428.4" y="384" text-anchor="middle" font-size="12" fill="#52514e">FY2020</text>
<line x1="516.0" y1="364.0" x2="516.0" y2="369.0" stroke="#52514e" stroke-width="1"/>
<text x="516.0" y="384" text-anchor="middle" font-size="12" fill="#52514e">FY2021</text>
<line x1="603.6" y1="364.0" x2="603.6" y2="369.0" stroke="#52514e" stroke-width="1"/>
<text x="603.6" y="384" text-anchor="middle" font-size="12" fill="#52514e">FY2022</text>
<line x1="691.2" y1="364.0" x2="691.2" y2="369.0" stroke="#52514e" stroke-width="1"/>
<text x="691.2" y="384" text-anchor="middle" font-size="12" fill="#52514e">FY2023</text>
<line x1="778.8" y1="364.0" x2="778.8" y2="369.0" stroke="#52514e" stroke-width="1"/>
<text x="778.8" y="384" text-anchor="middle" font-size="12" fill="#52514e">FY2024</text>
<line x1="866.4" y1="364.0" x2="866.4" y2="369.0" stroke="#52514e" stroke-width="1"/>
<text x="866.4" y="384" text-anchor="middle" font-size="12" fill="#52514e">FY2025</text>
<line x1="954.0" y1="364.0" x2="954.0" y2="369.0" stroke="#52514e" stroke-width="1"/>
<text x="954.0" y="384" text-anchor="middle" font-size="12" fill="#52514e">FY2026</text>
<polyline points="78.0,286.5 165.6,232.4 253.2,198.3 340.8,231.8 428.4,194.3 516.0,229.2 603.6,306.4 691.2,238.5 778.8,283.7 866.4,221.8 954.0,174.3" fill="none" stroke="#2a78d6" stroke-width="2.6" stroke-linejoin="round" stroke-linecap="round"/>
<circle cx="78.0" cy="286.5" r="4" fill="#ffffff" stroke="#2a78d6" stroke-width="2.4"/>
<text x="78.0" y="275.5" text-anchor="middle" font-size="10.5" fill="#2a78d6">-25.3</text>
<circle cx="165.6" cy="232.4" r="4" fill="#ffffff" stroke="#2a78d6" stroke-width="2.4"/>
<text x="165.6" y="221.4" text-anchor="middle" font-size="10.5" fill="#2a78d6">+0.7</text>
<circle cx="253.2" cy="198.3" r="4" fill="#ffffff" stroke="#2a78d6" stroke-width="2.4"/>
<text x="253.2" y="187.3" text-anchor="middle" font-size="10.5" fill="#2a78d6">+17.1</text>
<circle cx="340.8" cy="231.8" r="4" fill="#ffffff" stroke="#2a78d6" stroke-width="2.4"/>
<text x="340.8" y="220.8" text-anchor="middle" font-size="10.5" fill="#2a78d6">+1.0</text>
<circle cx="428.4" cy="194.3" r="4" fill="#ffffff" stroke="#2a78d6" stroke-width="2.4"/>
<text x="428.4" y="183.3" text-anchor="middle" font-size="10.5" fill="#2a78d6">+19.0</text>
<circle cx="516.0" cy="229.2" r="4" fill="#ffffff" stroke="#2a78d6" stroke-width="2.4"/>
<text x="516.0" y="218.2" text-anchor="middle" font-size="10.5" fill="#2a78d6">+2.3</text>
<circle cx="603.6" cy="306.4" r="4" fill="#ffffff" stroke="#2a78d6" stroke-width="2.4"/>
<text x="603.6" y="295.4" text-anchor="middle" font-size="10.5" fill="#2a78d6">-34.9</text>
<circle cx="691.2" cy="238.5" r="4" fill="#ffffff" stroke="#2a78d6" stroke-width="2.4"/>
<text x="691.2" y="227.5" text-anchor="middle" font-size="10.5" fill="#2a78d6">-2.2</text>
<circle cx="778.8" cy="283.7" r="4" fill="#ffffff" stroke="#2a78d6" stroke-width="2.4"/>
<text x="778.8" y="272.7" text-anchor="middle" font-size="10.5" fill="#2a78d6">-23.9</text>
<circle cx="866.4" cy="221.8" r="4" fill="#ffffff" stroke="#2a78d6" stroke-width="2.4"/>
<text x="866.4" y="210.8" text-anchor="middle" font-size="10.5" fill="#2a78d6">+5.8</text>
<circle cx="954.0" cy="174.3" r="4" fill="#ffffff" stroke="#2a78d6" stroke-width="2.4"/>
<text x="954.0" y="163.3" text-anchor="middle" font-size="10.5" fill="#2a78d6">+28.6</text>
<polyline points="78.0,255.2 165.6,234.6 253.2,177.9 340.8,201.4 428.4,265.5 516.0,297.0 603.6,79.8 691.2,262.0 778.8,299.3 866.4,196.9 954.0,338.2" fill="none" stroke="#1a9e5c" stroke-width="2.6" stroke-linejoin="round" stroke-linecap="round"/>
<circle cx="78.0" cy="255.2" r="4" fill="#ffffff" stroke="#1a9e5c" stroke-width="2.4"/>
<text x="78.0" y="272.2" text-anchor="middle" font-size="10.5" fill="#1a9e5c">-10.2</text>
<circle cx="165.6" cy="234.6" r="4" fill="#ffffff" stroke="#1a9e5c" stroke-width="2.4"/>
<text x="165.6" y="251.6" text-anchor="middle" font-size="10.5" fill="#1a9e5c">-0.3</text>
<circle cx="253.2" cy="177.9" r="4" fill="#ffffff" stroke="#1a9e5c" stroke-width="2.4"/>
<text x="253.2" y="194.9" text-anchor="middle" font-size="10.5" fill="#1a9e5c">+26.9</text>
<circle cx="340.8" cy="201.4" r="4" fill="#ffffff" stroke="#1a9e5c" stroke-width="2.4"/>
<text x="340.8" y="218.4" text-anchor="middle" font-size="10.5" fill="#1a9e5c">+15.6</text>
<circle cx="428.4" cy="265.5" r="4" fill="#ffffff" stroke="#1a9e5c" stroke-width="2.4"/>
<text x="428.4" y="282.5" text-anchor="middle" font-size="10.5" fill="#1a9e5c">-15.2</text>
<circle cx="516.0" cy="297.0" r="4" fill="#ffffff" stroke="#1a9e5c" stroke-width="2.4"/>
<text x="516.0" y="314.0" text-anchor="middle" font-size="10.5" fill="#1a9e5c">-30.3</text>
<circle cx="603.6" cy="79.8" r="4" fill="#ffffff" stroke="#1a9e5c" stroke-width="2.4"/>
<text x="603.6" y="96.8" text-anchor="middle" font-size="10.5" fill="#1a9e5c">+74.0</text>
<circle cx="691.2" cy="262.0" r="4" fill="#ffffff" stroke="#1a9e5c" stroke-width="2.4"/>
<text x="691.2" y="279.0" text-anchor="middle" font-size="10.5" fill="#1a9e5c">-13.5</text>
<circle cx="778.8" cy="299.3" r="4" fill="#ffffff" stroke="#1a9e5c" stroke-width="2.4"/>
<text x="778.8" y="316.3" text-anchor="middle" font-size="10.5" fill="#1a9e5c">-31.4</text>
<circle cx="866.4" cy="196.9" r="4" fill="#ffffff" stroke="#1a9e5c" stroke-width="2.4"/>
<text x="866.4" y="213.9" text-anchor="middle" font-size="10.5" fill="#1a9e5c">+17.8</text>
<circle cx="954.0" cy="338.2" r="4" fill="#ffffff" stroke="#1a9e5c" stroke-width="2.4"/>
<text x="954.0" y="355.2" text-anchor="middle" font-size="10.5" fill="#1a9e5c">-50.1</text>
<polyline points="78.0,261.9 165.6,217.4 253.2,177.2 340.8,195.4 428.4,91.8 516.0,240.0 603.6,287.0 691.2,275.2 778.8,274.1 866.4,199.6 954.0,166.9" fill="none" stroke="#e07b00" stroke-width="2.6" stroke-linejoin="round" stroke-linecap="round"/>
<circle cx="78.0" cy="261.9" r="4" fill="#ffffff" stroke="#e07b00" stroke-width="2.4"/>
<text x="78.0" y="250.9" text-anchor="middle" font-size="10.5" fill="#e07b00">-13.5</text>
<circle cx="165.6" cy="217.4" r="4" fill="#ffffff" stroke="#e07b00" stroke-width="2.4"/>
<text x="165.6" y="206.4" text-anchor="middle" font-size="10.5" fill="#e07b00">+7.9</text>
<circle cx="253.2" cy="177.2" r="4" fill="#ffffff" stroke="#e07b00" stroke-width="2.4"/>
<text x="253.2" y="166.2" text-anchor="middle" font-size="10.5" fill="#e07b00">+27.2</text>
<circle cx="340.8" cy="195.4" r="4" fill="#ffffff" stroke="#e07b00" stroke-width="2.4"/>
<text x="340.8" y="184.4" text-anchor="middle" font-size="10.5" fill="#e07b00">+18.5</text>
<circle cx="428.4" cy="91.8" r="4" fill="#ffffff" stroke="#e07b00" stroke-width="2.4"/>
<text x="428.4" y="80.8" text-anchor="middle" font-size="10.5" fill="#e07b00">+68.3</text>
<circle cx="516.0" cy="240.0" r="4" fill="#ffffff" stroke="#e07b00" stroke-width="2.4"/>
<text x="516.0" y="229.0" text-anchor="middle" font-size="10.5" fill="#e07b00">-2.9</text>
<circle cx="603.6" cy="287.0" r="4" fill="#ffffff" stroke="#e07b00" stroke-width="2.4"/>
<text x="603.6" y="276.0" text-anchor="middle" font-size="10.5" fill="#e07b00">-25.5</text>
<circle cx="691.2" cy="275.2" r="4" fill="#ffffff" stroke="#e07b00" stroke-width="2.4"/>
<text x="691.2" y="264.2" text-anchor="middle" font-size="10.5" fill="#e07b00">-19.8</text>
<circle cx="778.8" cy="274.1" r="4" fill="#ffffff" stroke="#e07b00" stroke-width="2.4"/>
<text x="778.8" y="263.1" text-anchor="middle" font-size="10.5" fill="#e07b00">-19.3</text>
<circle cx="866.4" cy="199.6" r="4" fill="#ffffff" stroke="#e07b00" stroke-width="2.4"/>
<text x="866.4" y="188.6" text-anchor="middle" font-size="10.5" fill="#e07b00">+16.5</text>
<circle cx="954.0" cy="166.9" r="4" fill="#ffffff" stroke="#e07b00" stroke-width="2.4"/>
<text x="954.0" y="155.9" text-anchor="middle" font-size="10.5" fill="#e07b00">+32.2</text>
<rect x="78" y="426" width="13" height="13" rx="3" fill="#2a78d6"/>
<text x="97" y="437" font-size="12.5" fill="#0b0b0b">Price ratio</text>
<rect x="186" y="426" width="13" height="13" rx="3" fill="#1a9e5c"/>
<text x="205" y="437" font-size="12.5" fill="#0b0b0b">PAT ratio</text>
<rect x="279" y="426" width="13" height="13" rx="3" fill="#e07b00"/>
<text x="298" y="437" font-size="12.5" fill="#0b0b0b">Operating-profit ratio</text>
</svg>
